<svg width="48" height="48" viewBox="0 0 48 48" fill="none" xmlns="http://www.w3.org/2000/svg">
<circle cx="24" cy="24" r="24" fill="#FFCC49"/>
<path d="M27.2325 17.2143C27.0048 16.9868 26.7021 16.8613 26.3801 16.8613C26.0581 16.8613 25.7554 16.9868 25.5279 17.2143C25.3002 17.4421 25.1747 17.7448 25.1747 18.0667C25.1747 18.3887 25.3002 18.6914 25.5277 18.9189L27.5812 20.9724C27.8087 21.1999 28.1116 21.3254 28.4335 21.3254C28.7555 21.3254 29.058 21.1999 29.2858 20.9724L33.673 16.5851C33.9008 16.3574 34.0261 16.0547 34.0261 15.7329C34.0261 15.4109 33.9008 15.1082 33.673 14.8805C33.4455 14.6528 33.1426 14.5275 32.8206 14.5275C32.4987 14.5275 32.196 14.6528 31.9684 14.8805L31.4847 15.3642C31.1263 15.0907 30.733 14.8713 30.3163 14.7127V14.1643C30.3163 13.4996 29.7756 12.9588 29.111 12.9588H25.3314V12.5404C25.3314 11.691 24.6404 11 23.7911 11H19.576C18.7267 11 18.0356 11.691 18.0356 12.5404V14.2808C18.0356 14.7527 18.4196 15.1367 18.8915 15.1367H24.4756C24.9475 15.1367 25.3314 14.7527 25.3314 14.2808V13.6924H29.1108C29.371 13.6924 29.5827 13.9041 29.5827 14.1643V14.5021C29.2808 14.441 28.9718 14.4086 28.6592 14.4086C26.0902 14.4086 24.0001 16.4987 24.0001 19.0677C24.0001 21.6367 26.0902 23.7268 28.6592 23.7268C28.9726 23.7268 29.2816 23.6953 29.5827 23.6348V34.7947C29.5827 35.0549 29.371 35.2664 29.1108 35.2664H14.256C13.9959 35.2664 13.7843 35.0549 13.7843 34.7947V14.1643C13.7843 13.9041 13.9959 13.6924 14.256 13.6924H16.6942C16.8968 13.6924 17.061 13.5282 17.061 13.3256C17.061 13.1231 16.8968 12.9588 16.6942 12.9588H14.256C13.5915 12.9588 13.0508 13.4996 13.0508 14.1643V34.7947C13.0508 35.4593 13.5915 36 14.256 36H29.111C29.7756 36 30.3163 35.4593 30.3163 34.7947V23.4228C30.9003 23.2005 31.439 22.8614 31.8998 22.4153C32.771 21.5717 33.274 20.4406 33.3156 19.2304C33.3225 19.028 33.1642 18.8583 32.9616 18.8512C32.7606 18.8445 32.5895 19.0027 32.5824 19.2052C32.5239 20.9087 31.4037 22.3152 29.8654 22.8059C29.8442 22.8109 29.8236 22.8174 29.8042 22.8259C29.4422 22.9349 29.0578 22.9932 28.6592 22.9932C26.4947 22.9932 24.7337 21.2322 24.7337 19.0677C24.7337 16.9032 26.4947 15.1422 28.6592 15.1422C29.4906 15.1422 30.2942 15.405 30.9608 15.8882L28.4335 18.4156L27.2325 17.2143ZM24.5979 14.2808C24.5979 14.3484 24.5431 14.4031 24.4756 14.4031H18.8915C18.8239 14.4031 18.7692 14.3484 18.7692 14.2808V12.5404C18.7692 12.0954 19.131 11.7336 19.576 11.7336H23.7911C24.2359 11.7336 24.5979 12.0954 24.5979 12.5404V14.2808ZM32.4872 15.3993C32.5763 15.31 32.6948 15.261 32.8206 15.261C32.9467 15.261 33.0652 15.3102 33.1544 15.3993C33.3383 15.5832 33.3383 15.8826 33.1544 16.0665L28.767 20.4538C28.6779 20.5428 28.5594 20.5921 28.4334 20.5921C28.3073 20.5921 28.1888 20.5428 28.0998 20.4538L26.0463 18.4003C25.9572 18.3112 25.9082 18.1928 25.9082 18.0667C25.9082 17.9407 25.9572 17.8222 26.0465 17.7331C26.1356 17.6441 26.254 17.5948 26.3801 17.5948C26.506 17.5948 26.6246 17.6441 26.7137 17.7331L28.1741 19.1936C28.3174 19.3368 28.5495 19.3368 28.6928 19.1936L32.4872 15.3993Z" fill="black"/>
<path d="M23.033 20.207H18.5639C18.3613 20.207 18.1973 20.3713 18.1973 20.5738C18.1973 20.7762 18.3613 20.9404 18.5639 20.9404H23.033C23.2355 20.9404 23.3997 20.7762 23.3997 20.5738C23.3997 20.3713 23.2355 20.207 23.033 20.207Z" fill="black"/>
<path d="M17.864 16.4219H15.3961C15.1935 16.4219 15.0293 16.5861 15.0293 16.7887C15.0293 16.9912 15.1935 17.1554 15.3961 17.1554H17.864C18.0666 17.1554 18.2308 16.9912 18.2308 16.7887C18.2308 16.5861 18.0666 16.4219 17.864 16.4219Z" fill="black"/>
<path d="M18.5639 22.6416H23.033C23.2355 22.6416 23.3997 22.4774 23.3997 22.2748C23.3997 22.0724 23.2355 21.9082 23.033 21.9082H18.5639C18.3613 21.9082 18.1973 22.0724 18.1973 22.2748C18.1973 22.4774 18.3613 22.6416 18.5639 22.6416Z" fill="black"/>
<path d="M24.5768 24.6543H18.5639C18.3613 24.6543 18.1973 24.8185 18.1973 25.0211C18.1973 25.2236 18.3613 25.3879 18.5639 25.3879H24.5768C24.7793 25.3879 24.9436 25.2236 24.9436 25.0211C24.9436 24.8185 24.7793 24.6543 24.5768 24.6543Z" fill="black"/>
<path d="M18.5639 27.089H21.5704C21.773 27.089 21.937 26.9248 21.937 26.7223C21.937 26.5197 21.773 26.3555 21.5704 26.3555H18.5639C18.3613 26.3555 18.1973 26.5197 18.1973 26.7223C18.1973 26.9248 18.3613 27.089 18.5639 27.089Z" fill="black"/>
<path d="M18.5639 29.841H23.033C23.2355 29.841 23.3997 29.6768 23.3997 29.4742C23.3997 29.2716 23.2355 29.1074 23.033 29.1074H18.5639C18.3613 29.1074 18.1973 29.2716 18.1973 29.4742C18.1973 29.6768 18.3613 29.841 18.5639 29.841Z" fill="black"/>
<path d="M18.5639 31.542H24.5768C24.7793 31.542 24.9436 31.3777 24.9436 31.1752C24.9436 30.9728 24.7793 30.8086 24.5768 30.8086H18.5639C18.3613 30.8086 18.1973 30.9728 18.1973 31.1752C18.1973 31.3777 18.3613 31.542 18.5639 31.542Z" fill="black"/>
<path d="M16.1748 19.8887C15.3579 19.8887 14.6934 20.5532 14.6934 21.3701C14.6934 22.187 15.3579 22.8515 16.1748 22.8515C16.9917 22.8515 17.6562 22.187 17.6562 21.3701C17.6562 20.5532 16.9917 19.8887 16.1748 19.8887ZM16.1748 22.118C15.7624 22.118 15.4269 21.7825 15.4269 21.3701C15.4269 20.9577 15.7624 20.6222 16.1748 20.6222C16.5872 20.6222 16.9227 20.9577 16.9227 21.3701C16.9227 21.7825 16.5872 22.118 16.1748 22.118Z" fill="black"/>
<path d="M16.1748 24.3906C15.3579 24.3906 14.6934 25.0553 14.6934 25.8721C14.6934 26.689 15.3579 27.3535 16.1748 27.3535C16.9917 27.3535 17.6562 26.689 17.6562 25.8721C17.6562 25.0553 16.9917 24.3906 16.1748 24.3906ZM16.1748 26.6201C15.7624 26.6201 15.4269 26.2846 15.4269 25.8723C15.4269 25.4597 15.7624 25.1242 16.1748 25.1242C16.5872 25.1242 16.9227 25.4597 16.9227 25.8723C16.9227 26.2846 16.5872 26.6201 16.1748 26.6201Z" fill="black"/>
<path d="M16.1748 28.8438C15.3579 28.8438 14.6934 29.5083 14.6934 30.3252C14.6934 31.1421 15.3579 31.8066 16.1748 31.8066C16.9917 31.8066 17.6562 31.1421 17.6562 30.3252C17.6562 29.5083 16.9917 28.8438 16.1748 28.8438ZM16.1748 31.0731C15.7624 31.0731 15.4269 30.7376 15.4269 30.3252C15.4269 29.9128 15.7624 29.5773 16.1748 29.5773C16.5872 29.5773 16.9227 29.9128 16.9227 30.3252C16.9227 30.7376 16.5872 31.0731 16.1748 31.0731Z" fill="black"/>
</svg>
