<svg width="189" height="46" viewBox="0 0 189 56" fill="none" xmlns="http://www.w3.org/2000/svg">
<path fill-rule="evenodd" clip-rule="evenodd" d="M181.997 56H7.00258C3.14316 56 0 52.8439 0 49V7C0 3.14214 3.14316 0 7.00258 0H181.997C185.853 0 189 3.14214 189 7V49C189 52.8439 185.853 56 181.997 56Z" fill="black"/>
<path fill-rule="evenodd" clip-rule="evenodd" d="M181.997 1.1207C185.234 1.1207 187.884 3.76359 187.884 7V49C187.884 52.2364 185.252 54.8793 181.997 54.8793H7.00258C3.76554 54.8793 1.1161 52.2364 1.1161 49V7C1.1161 3.76359 3.74815 1.1207 7.00258 1.1207H181.997ZM181.997 0H7.00258C3.14316 0 0 3.15611 0 7V49C0 52.8579 3.14316 56 7.00258 56H181.997C185.853 56 189 52.8579 189 49V7C189 3.15611 185.853 0 181.997 0Z" fill="#212121"/>
<path d="M99.566 18.5236C98.3039 18.5236 97.24 18.0802 96.3985 17.2074C95.5641 16.359 95.0982 15.1894 95.119 13.9954C95.119 12.7211 95.5502 11.6423 96.3985 10.7869C97.2365 9.9141 98.3004 9.4707 99.5625 9.4707C100.811 9.4707 101.875 9.9141 102.73 10.7869C103.578 11.6702 104.01 12.749 104.01 13.9954C103.996 15.2732 103.564 16.352 102.73 17.2039C101.892 18.0837 100.828 18.5236 99.566 18.5236ZM62.0117 18.5236C60.7774 18.5236 59.7065 18.0872 58.8303 17.2248C57.9611 16.366 57.5195 15.2802 57.5195 13.9989C57.5195 12.7176 57.9611 11.6318 58.8303 10.7729C59.6891 9.9106 60.76 9.47419 62.0117 9.47419C62.6237 9.47419 63.2182 9.59639 63.7884 9.84427C64.3482 10.0852 64.8037 10.4133 65.141 10.8148L65.2244 10.9161L64.2822 11.8448L64.1848 11.7296C63.6528 11.0941 62.9401 10.7834 61.9978 10.7834C61.1564 10.7834 60.4228 11.0837 59.8178 11.6772C59.2093 12.2742 58.8999 13.0562 58.8999 14.0024C58.8999 14.9485 59.2093 15.7306 59.8178 16.3276C60.4228 16.9211 61.1564 17.2213 61.9978 17.2213C62.8949 17.2213 63.6494 16.9211 64.237 16.3276C64.5846 15.9784 64.8002 15.4897 64.8767 14.8717H61.8553V13.566H66.1736L66.191 13.6847C66.2223 13.9046 66.2536 14.1316 66.2536 14.341C66.2536 15.5455 65.892 16.5196 65.1757 17.2388C64.3621 18.0907 63.2982 18.5236 62.0117 18.5236ZM111.944 18.3385H110.612L106.534 11.7854L106.569 12.9655V18.335H105.237V9.65923H106.756L106.798 9.72557L110.633 15.8981L110.598 14.7216V9.65923H111.944V18.3385ZM89.5594 18.3385H88.2104V10.965H85.8704V9.65923H91.8959V10.965H89.5559V18.3385H89.5594ZM84.7717 18.3385H83.4261V9.65923H84.7717V18.3385ZM77.2094 18.3385H75.8638V10.965H73.5238V9.65923H79.5493V10.965H77.2094V18.3385ZM72.672 18.3246H67.5122V9.65923H72.672V10.965H68.8613V13.346H72.2999V14.6378H68.8613V17.0188H72.672V18.3246ZM97.386 16.3101C97.9875 16.9141 98.7177 17.2178 99.566 17.2178C100.439 17.2178 101.152 16.9211 101.746 16.3101C102.337 15.7166 102.636 14.938 102.636 13.9989C102.636 13.0597 102.337 12.2777 101.75 11.6877C101.148 11.0837 100.414 10.7799 99.5695 10.7799C98.6968 10.7799 97.984 11.0767 97.3929 11.6877C96.8019 12.2812 96.5028 13.0597 96.5028 13.9989C96.5028 14.938 96.7984 15.7201 97.386 16.3101Z" fill="#FAFAFA"/>
<path fill-rule="evenodd" clip-rule="evenodd" d="M94.9947 30.4562C91.709 30.4562 89.0457 32.9595 89.0457 36.4123C89.0457 39.8338 91.7264 42.3684 94.9947 42.3684C98.2804 42.3684 100.944 39.8477 100.944 36.4123C100.944 32.9595 98.2804 30.4562 94.9947 30.4562ZM94.9947 40.0083C93.1971 40.0083 91.6499 38.5141 91.6499 36.3984C91.6499 34.2512 93.2006 32.7884 94.9947 32.7884C96.7923 32.7884 98.3395 34.2512 98.3395 36.3984C98.343 38.528 96.7923 40.0083 94.9947 40.0083ZM82.0152 30.4562C78.7295 30.4562 76.0662 32.9595 76.0662 36.4123C76.0662 39.8338 78.7469 42.3684 82.0152 42.3684C85.301 42.3684 87.9643 39.8477 87.9643 36.4123C87.9643 32.9595 85.2975 30.4562 82.0152 30.4562ZM82.0152 40.0083C80.2177 40.0083 78.6704 38.5141 78.6704 36.3984C78.6704 34.2512 80.2211 32.7884 82.0152 32.7884C83.8128 32.7884 85.3601 34.2512 85.3601 36.3984C85.3601 38.528 83.8128 40.0083 82.0152 40.0083ZM66.5706 32.2752V34.7959H72.5962C72.4119 36.2098 71.946 37.2537 71.2332 37.9694C70.3501 38.8562 68.9871 39.8198 66.5845 39.8198C62.8816 39.8198 59.9853 36.8173 59.9853 33.0991C59.9853 29.3809 62.8816 26.3784 66.5845 26.3784C68.5838 26.3784 70.0406 27.1709 71.122 28.1834L72.9022 26.3959C71.4001 24.9505 69.4009 23.8438 66.5984 23.8438C61.5186 23.8438 57.2559 27.9984 57.2559 33.0851C57.2559 38.1859 61.5151 42.3265 66.5984 42.3265C69.3418 42.3265 71.4001 41.4258 73.0273 39.729C74.6858 38.0637 75.2109 35.7141 75.2109 33.8183C75.2109 33.2283 75.1657 32.6976 75.0718 32.2472H66.5671C66.5706 32.2437 66.5706 32.2752 66.5706 32.2752ZM129.743 34.2373C129.246 32.9001 127.744 30.4423 124.664 30.4423C121.611 30.4423 119.073 32.8547 119.073 36.3984C119.073 39.743 121.583 42.3545 124.959 42.3545C127.671 42.3545 129.25 40.6891 129.9 39.7116L127.887 38.357C127.219 39.352 126.291 40.0048 124.973 40.0048C123.641 40.0048 122.71 39.3974 122.091 38.1999L130.022 34.9006C130.022 34.9041 129.743 34.2373 129.743 34.2373ZM121.656 36.2273C121.593 33.9265 123.436 32.757 124.754 32.757C125.794 32.757 126.659 33.2702 126.955 34.0173L121.656 36.2273ZM115.213 41.9984H117.817V24.5001H115.213V41.9984ZM110.937 31.7794H110.843C110.255 31.0777 109.139 30.4423 107.713 30.4423C104.755 30.4423 102.029 33.0572 102.029 36.4158C102.029 39.7605 104.741 42.344 107.713 42.344C109.122 42.344 110.255 41.7051 110.843 40.9894H110.937V41.8447C110.937 44.1176 109.727 45.343 107.776 45.343C106.18 45.343 105.189 44.1909 104.786 43.2273L102.522 44.1769C103.173 45.748 104.908 47.6926 107.773 47.6926C110.825 47.6926 113.412 45.8876 113.412 41.4851V30.7984H110.95V31.7794C110.954 31.7794 110.937 31.7794 110.937 31.7794ZM107.946 40.0083C106.149 40.0083 104.647 38.5001 104.647 36.4158C104.647 34.3141 106.149 32.7919 107.946 32.7919C109.727 32.7919 111.107 34.3315 111.107 36.4158C111.124 38.5001 109.73 40.0083 107.946 40.0083ZM141.937 24.5001H135.71V41.9984H138.314V35.3719H141.941C144.823 35.3719 147.657 33.2737 147.657 29.943C147.657 26.6123 144.833 24.5001 141.937 24.5001ZM142.014 32.928H138.311V26.9231H142.014C143.964 26.9231 145.066 28.5395 145.066 29.9255C145.066 31.2976 143.95 32.928 142.014 32.928ZM158.094 30.4248C156.203 30.4248 154.252 31.2662 153.446 33.0991L155.754 34.0627C156.252 33.0991 157.163 32.7709 158.126 32.7709C159.475 32.7709 160.838 33.5809 160.869 35.0263V35.2113C160.403 34.946 159.381 34.541 158.157 34.541C155.664 34.541 153.136 35.9096 153.136 38.4757C153.136 40.8253 155.181 42.3335 157.458 42.3335C159.207 42.3335 160.17 41.541 160.772 40.6228H160.866V41.9774H163.376V35.2742C163.376 32.153 161.067 30.4248 158.094 30.4248ZM157.768 40.0083C156.916 40.0083 155.723 39.5894 155.723 38.5141C155.723 37.1595 157.211 36.6462 158.48 36.6462C159.628 36.6462 160.17 36.8941 160.852 37.2363C160.664 38.8073 159.343 39.9944 157.768 40.0083ZM172.534 30.7984L169.544 38.3884H169.45L166.352 30.7984H163.55L168.199 41.4083L165.549 47.3051H168.261L175.413 30.7984H172.534ZM149.093 41.9984H151.697V24.5001H149.093V41.9984Z" fill="#FAFAFA"/>
<path fill-rule="evenodd" clip-rule="evenodd" d="M14.5464 10.5474C14.1431 10.9838 13.9102 11.6506 13.9102 12.5234V43.4806C13.9102 44.3534 14.1431 45.0202 14.5603 45.4392L14.6681 45.5334L31.9416 28.1888V27.8013L14.6542 10.4531L14.5464 10.5474Z" fill="url(#paint0_linear)"/>
<path fill-rule="evenodd" clip-rule="evenodd" d="M37.691 33.9868L31.9297 28.2017V27.7968L37.691 22.0117L37.8162 22.0885L44.6311 25.9778C46.5816 27.081 46.5816 28.9035 44.6311 30.0207L37.8162 33.91L37.691 33.9868Z" fill="url(#paint1_linear)"/>
<path fill-rule="evenodd" clip-rule="evenodd" d="M37.8146 33.9107L31.9281 28L14.5469 45.4529C15.1832 46.1372 16.2506 46.214 17.4432 45.5471L37.8146 33.9107Z" fill="url(#paint2_linear)"/>
<path fill-rule="evenodd" clip-rule="evenodd" d="M37.8146 22.0894L17.4432 10.4705C16.2506 9.78618 15.1797 9.88044 14.5469 10.5647L31.9281 28.0001L37.8146 22.0894Z" fill="url(#paint3_linear)"/>
<path opacity="0.2" fill-rule="evenodd" clip-rule="evenodd" d="M37.6893 33.7852L17.4569 45.3273C16.3268 45.9801 15.3185 45.9347 14.6683 45.3412L14.5605 45.4495L14.6683 45.5437C15.3185 46.1337 16.3268 46.1826 17.4569 45.5298L37.8284 33.9108L37.6893 33.7852Z" fill="#FAFAFA"/>
<path opacity="0.12" fill-rule="evenodd" clip-rule="evenodd" d="M44.6292 29.819L37.6719 33.785L37.797 33.9107L44.6119 30.0214C45.5889 29.4628 46.0687 28.7297 46.0687 28C46.0096 28.6703 45.5124 29.3057 44.6292 29.819Z" fill="#FAFAFA"/>
<path opacity="0.25" fill-rule="evenodd" clip-rule="evenodd" d="M17.4427 10.6732L44.629 26.1814C45.5121 26.6807 46.0094 27.3335 46.0858 28.0004C46.0858 27.2707 45.606 26.5375 44.629 25.9789L17.4427 10.4707C15.4922 9.35001 13.9102 10.2857 13.9102 12.5236V12.7261C13.9102 10.4847 15.4922 9.56646 17.4427 10.6732Z" fill="white"/>
<defs>
<linearGradient id="paint0_linear" x1="30.3922" y1="12.1895" x2="2.70805" y2="19.5357" gradientUnits="userSpaceOnUse">
<stop stop-color="#00A0FF"/>
<stop offset="0.00657" stop-color="#00A1FF"/>
<stop offset="0.2601" stop-color="#00BEFF"/>
<stop offset="0.5122" stop-color="#00D2FF"/>
<stop offset="0.7604" stop-color="#00DFFF"/>
<stop offset="1" stop-color="#00E3FF"/>
</linearGradient>
<linearGradient id="paint1_linear" x1="47.1748" y1="27.9993" x2="13.438" y2="27.9993" gradientUnits="userSpaceOnUse">
<stop stop-color="#FFE000"/>
<stop offset="0.4087" stop-color="#FFBD00"/>
<stop offset="0.7754" stop-color="#FFA500"/>
<stop offset="1" stop-color="#FF9C00"/>
</linearGradient>
<linearGradient id="paint2_linear" x1="34.6138" y1="31.2163" x2="12.2659" y2="68.6753" gradientUnits="userSpaceOnUse">
<stop stop-color="#FF3A44"/>
<stop offset="1" stop-color="#C31162"/>
</linearGradient>
<linearGradient id="paint3_linear" x1="10.1701" y1="0.250449" x2="20.1404" y2="16.9803" gradientUnits="userSpaceOnUse">
<stop stop-color="#32A071"/>
<stop offset="0.0685" stop-color="#2DA771"/>
<stop offset="0.4762" stop-color="#15CF74"/>
<stop offset="0.8009" stop-color="#06E775"/>
<stop offset="1" stop-color="#00F076"/>
</linearGradient>
</defs>
</svg>
