<?xml version="1.0" encoding="UTF-8"?>
<!DOCTYPE svg PUBLIC "-//W3C//DTD SVG 1.1//EN" "http://www.w3.org/Graphics/SVG/1.1/DTD/svg11.dtd">
<!-- Creator: CorelDRAW X8 -->
<svg xmlns="http://www.w3.org/2000/svg" xml:space="preserve" width="210mm" height="297mm" version="1.1" style="shape-rendering:geometricPrecision; text-rendering:geometricPrecision; image-rendering:optimizeQuality; fill-rule:evenodd; clip-rule:evenodd"
viewBox="0 0 21000 29700"
 xmlns:xlink="http://www.w3.org/1999/xlink">
 <defs>
  <style type="text/css">
   <![CDATA[
    .fil0 {fill:black}
    .fil1 {fill:#212121}
    .fil2 {fill:#FAFAFA}
    .fil8 {fill:#FAFAFA;fill-opacity:0.121569}
    .fil7 {fill:#FAFAFA;fill-opacity:0.200000}
    .fil9 {fill:white;fill-opacity:0.250980}
    .fil3 {fill:url(#id0)}
    .fil5 {fill:url(#id1)}
    .fil4 {fill:url(#id2)}
    .fil6 {fill:url(#id3)}
   ]]>
  </style>
  <linearGradient id="id0" gradientUnits="userSpaceOnUse" x1="9098.19" y1="14502.3" x2="8489.64" y2="14654.4">
   <stop offset="0" style="stop-opacity:1; stop-color:#00A1FF"/>
   <stop offset="0.0117647" style="stop-opacity:1; stop-color:#00A1FF"/>
   <stop offset="0.258824" style="stop-opacity:1; stop-color:#00BEFF"/>
   <stop offset="0.509804" style="stop-opacity:1; stop-color:#00D2FF"/>
   <stop offset="0.760784" style="stop-opacity:1; stop-color:#00DFFF"/>
   <stop offset="1" style="stop-opacity:1; stop-color:#00E3FF"/>
   <stop offset="50.851" style="stop-opacity:1; stop-color:#00A0FF"/>
   <stop offset="1" style="stop-opacity:1; stop-color:#00A0FF"/>
  </linearGradient>
  <linearGradient id="id1" gradientUnits="userSpaceOnUse" x1="9185.12" y1="14914.5" x2="8706.98" y2="15709.5">
   <stop offset="0" style="stop-opacity:1; stop-color:#C31162"/>
   <stop offset="1" style="stop-opacity:1; stop-color:#C31162"/>
   <stop offset="50.851" style="stop-opacity:1; stop-color:#FF3A44"/>
   <stop offset="1" style="stop-opacity:1; stop-color:#FF3A44"/>
  </linearGradient>
  <linearGradient id="id2" gradientUnits="userSpaceOnUse" x1="9456.77" y1="14828.3" x2="8742.39" y2="14828.3">
   <stop offset="0" style="stop-opacity:1; stop-color:#FFBD00"/>
   <stop offset="0.411765" style="stop-opacity:1; stop-color:#FFBD00"/>
   <stop offset="0.780392" style="stop-opacity:1; stop-color:orange"/>
   <stop offset="1" style="stop-opacity:1; stop-color:#FF9C00"/>
   <stop offset="50.851" style="stop-opacity:1; stop-color:#FFE000"/>
   <stop offset="1" style="stop-opacity:1; stop-color:#FFE000"/>
  </linearGradient>
  <linearGradient id="id3" gradientUnits="userSpaceOnUse" x1="8663.51" y1="14248.7" x2="8880.85" y2="14592.3">
   <stop offset="0" style="stop-opacity:1; stop-color:#2DA771"/>
   <stop offset="0.0705882" style="stop-opacity:1; stop-color:#2DA771"/>
   <stop offset="0.470588" style="stop-opacity:1; stop-color:#15CF74"/>
   <stop offset="0.8" style="stop-opacity:1; stop-color:#06E775"/>
   <stop offset="1" style="stop-opacity:1; stop-color:#00F076"/>
   <stop offset="50.851" style="stop-opacity:1; stop-color:#32A071"/>
   <stop offset="1" style="stop-opacity:1; stop-color:#32A071"/>
  </linearGradient>
 </defs>
 <g id="Layer_x0020_1">
  <metadata id="CorelCorpID_0Corel-Layer"/>
  <g id="_344622432">
   <path class="fil0" d="M12402 15459l-3804 0c-84,0 -152,-69 -152,-153l0 -912c0,-84 68,-153 152,-153l3804 0c83,0 152,69 152,153l0 912c0,84 -69,153 -152,153z"/>
   <path class="fil1" d="M12402 14266c70,0 128,57 128,128l0 912c0,71 -58,128 -128,128l-3804 0c-70,0 -128,-57 -128,-128l0 -912c0,-71 58,-128 128,-128l3804 0zm0 -25l-3804 0c-84,0 -152,69 -152,153l0 912c0,84 68,153 152,153l3804 0c83,0 152,-69 152,-153l0 -912c0,-84 -69,-153 -152,-153z"/>
   <path class="fil2" d="M10610 14644c-27,0 -50,-10 -69,-29 -18,-18 -28,-43 -28,-69 0,-28 10,-52 28,-70 18,-19 42,-29 69,-29 27,0 50,10 69,29 18,19 28,43 28,70 -1,27 -10,51 -28,69 -18,19 -41,29 -69,29zm-816 0c-27,0 -50,-9 -69,-28 -19,-19 -29,-42 -29,-70 0,-28 10,-52 29,-70 18,-19 42,-29 69,-29 13,0 26,3 39,8 12,6 22,13 29,22l2 2 -21 20 -2 -3c-11,-13 -27,-20 -47,-20 -19,0 -35,6 -48,19 -13,13 -20,30 -20,51 0,20 7,37 20,50 13,13 29,20 48,20 19,0 36,-7 48,-20 8,-7 13,-18 14,-31l-65 0 0 -29 93 0 1 3c0,5 1,10 1,14 0,26 -8,47 -23,63 -18,19 -41,28 -69,28zm1085 -4l-29 0 -88 -142 0 25 0 117 -29 0 0 -189 33 0 1 2 84 134 -1 -26 0 -110 29 0 0 189zm-486 0l-30 0 0 -160 -51 0 0 -29 131 0 0 29 -50 0 0 160 0 0zm-104 0l-30 0 0 -189 30 0 0 189zm-165 0l-29 0 0 -160 -51 0 0 -29 131 0 0 29 -51 0 0 160zm-98 0l-113 0 0 -189 113 0 0 29 -83 0 0 52 75 0 0 28 -75 0 0 51 83 0 0 29zm537 -44c13,13 29,20 47,20 19,0 35,-7 47,-20 13,-13 20,-30 20,-50 0,-21 -7,-38 -19,-51 -14,-13 -29,-19 -48,-19 -19,0 -34,6 -47,19 -13,13 -19,30 -19,51 0,20 6,37 19,50z"/>
   <path class="fil2" d="M10511 14903c-72,0 -130,55 -130,130 0,74 59,129 130,129 71,0 129,-55 129,-129 0,-75 -58,-130 -129,-130zm0 208c-39,0 -73,-32 -73,-78 0,-47 34,-79 73,-79 39,0 72,32 72,79 1,46 -33,78 -72,78zm-282 -208c-72,0 -130,55 -130,130 0,74 59,129 130,129 71,0 129,-55 129,-129 0,-75 -58,-130 -129,-130zm0 208c-39,0 -73,-32 -73,-78 0,-47 34,-79 73,-79 39,0 72,32 72,79 0,46 -33,78 -72,78zm-336 -168l0 55 131 0c-4,30 -14,53 -30,69 -19,19 -48,40 -101,40 -80,0 -143,-65 -143,-146 0,-81 63,-146 143,-146 44,0 75,17 99,39l39 -39c-33,-31 -76,-55 -137,-55 -111,0 -203,90 -203,201 0,110 92,200 203,200 59,0 104,-19 139,-56 36,-36 48,-87 48,-129 0,-12 -1,-24 -3,-34l-185 0c0,0 0,1 0,1zm1373 43c-11,-29 -43,-83 -110,-83 -67,0 -122,53 -122,130 0,72 55,129 128,129 59,0 93,-36 107,-57l-43 -30c-15,22 -35,36 -64,36 -29,0 -49,-13 -62,-39l172 -72c0,0 -6,-14 -6,-14zm-176 43c-1,-50 39,-76 68,-76 22,0 41,12 47,28l-115 48zm-140 125l57 0 0 -380 -57 0 0 380zm-93 -222l-2 0c-13,-15 -37,-29 -68,-29 -64,0 -123,57 -123,130 0,73 59,129 123,129 31,0 55,-14 68,-30l2 0 0 19c0,49 -26,76 -68,76 -35,0 -57,-25 -65,-46l-50 21c15,34 52,76 114,76 67,0 123,-39 123,-135l0 -232 -53 0 0 21c0,0 -1,0 -1,0zm-65 179c-39,0 -71,-33 -71,-78 0,-46 32,-79 71,-79 39,0 69,34 69,79 0,45 -30,78 -69,78zm739 -337l-135 0 0 380 56 0 0 -144 79 0c63,0 124,-45 124,-118 0,-72 -61,-118 -124,-118zm2 183l-81 0 0 -130 81 0c42,0 66,35 66,65 0,30 -24,65 -66,65zm349 -54c-41,0 -83,18 -101,58l50 21c11,-21 31,-28 52,-28 29,0 59,17 59,49l0 4c-10,-6 -32,-15 -58,-15 -55,0 -110,30 -110,86 0,51 45,84 94,84 38,0 59,-18 72,-38l2 0 0 30 55 0 0 -146c0,-68 -50,-105 -115,-105zm-7 208c-18,0 -44,-9 -44,-32 0,-30 32,-41 60,-41 24,0 36,5 51,13 -4,34 -33,60 -67,60zm321 -200l-65 165 -2 0 -67 -165 -61 0 101 230 -58 129 59 0 156 -359 -63 0zm-509 243l56 0 0 -380 -56 0 0 380z"/>
   <path class="fil3" d="M8762 14471c-8,9 -14,24 -14,43l0 672c0,19 6,34 15,43l2 2 375 -377 0 -8 -375 -377 -3 2z"/>
   <path class="fil4" d="M9265 14980l-125 -126 0 -8 125 -126 3 2 148 84c43,24 43,64 0,88l-148 84 -3 2z"/>
   <path class="fil5" d="M9268 14978l-128 -128 -378 379c14,15 37,17 63,2l443 -253z"/>
   <path class="fil6" d="M9268 14722l-443 -253c-26,-15 -49,-13 -63,2l378 379 128 -128z"/>
   <path class="fil7" d="M9265 14976l-439 251c-25,14 -47,13 -61,0l-2 2 2 2c14,13 36,14 61,0l442 -253 -3 -2z"/>
   <path class="fil8" d="M9416 14890l-151 86 3 2 148 -84c21,-12 31,-28 31,-44 -1,15 -12,28 -31,40z"/>
   <path class="fil9" d="M8825 14473l591 337c19,11 30,26 32,40 0,-16 -11,-32 -32,-44l-591 -337c-42,-24 -77,-4 -77,45l0 4c0,-49 35,-69 77,-45z"/>
  </g>
 </g>
</svg>
