<svg width="40" height="40" viewBox="0 0 40 40" fill="none" xmlns="http://www.w3.org/2000/svg">
<circle cx="20" cy="20" r="20" fill="#FFCC49"/>
<path d="M28.9461 16.3045C28.936 15.5471 28.7942 14.7972 28.5271 14.0885C28.2954 13.4906 27.9416 12.9477 27.4883 12.4943C27.0349 12.0409 26.4919 11.6871 25.8941 11.4555C25.1944 11.1928 24.4553 11.0508 23.7081 11.0355C22.7461 10.9925 22.4411 10.9805 19.9991 10.9805C17.5571 10.9805 17.2441 10.9805 16.2891 11.0355C15.5423 11.0509 14.8034 11.1929 14.1041 11.4555C13.5062 11.687 12.9631 12.0407 12.5097 12.4941C12.0563 12.9475 11.7026 13.4905 11.4711 14.0885C11.2079 14.7876 11.0662 15.5266 11.0521 16.2735C11.0091 17.2365 10.9961 17.5415 10.9961 19.9835C10.9961 22.4255 10.9961 22.7375 11.0521 23.6935C11.0671 24.4415 11.2081 25.1795 11.4711 25.8805C11.703 26.4782 12.057 27.021 12.5105 27.4742C12.9641 27.9274 13.5072 28.281 14.1051 28.5125C14.8025 28.7857 15.5415 28.9378 16.2901 28.9625C17.2531 29.0055 17.5581 29.0185 20.0001 29.0185C22.4421 29.0185 22.7551 29.0185 23.7101 28.9625C24.4572 28.9478 25.1965 28.8061 25.8961 28.5435C26.4938 28.3116 27.0366 27.9576 27.4899 27.5043C27.9433 27.051 28.2972 26.5082 28.5291 25.9105C28.7921 25.2105 28.9331 24.4725 28.9481 23.7235C28.9911 22.7615 29.0041 22.4565 29.0041 20.0135C29.0021 17.5715 29.0021 17.2615 28.9461 16.3045ZM19.9931 24.6015C17.4391 24.6015 15.3701 22.5325 15.3701 19.9785C15.3701 17.4245 17.4391 15.3555 19.9931 15.3555C21.2192 15.3555 22.3951 15.8425 23.262 16.7095C24.129 17.5765 24.6161 18.7524 24.6161 19.9785C24.6161 21.2046 24.129 22.3804 23.262 23.2474C22.3951 24.1144 21.2192 24.6015 19.9931 24.6015ZM24.8001 16.2625C24.2031 16.2625 23.7221 15.7805 23.7221 15.1845C23.7221 15.043 23.75 14.9029 23.8041 14.7721C23.8583 14.6414 23.9376 14.5226 24.0377 14.4226C24.1377 14.3225 24.2565 14.2431 24.3873 14.189C24.518 14.1348 24.6581 14.107 24.7996 14.107C24.9411 14.107 25.0812 14.1348 25.2119 14.189C25.3427 14.2431 25.4614 14.3225 25.5615 14.4226C25.6616 14.5226 25.7409 14.6414 25.7951 14.7721C25.8492 14.9029 25.8771 15.043 25.8771 15.1845C25.8771 15.7805 25.3951 16.2625 24.8001 16.2625Z" fill="black"/>
<path d="M19.9932 22.9826C21.6517 22.9826 22.9962 21.6381 22.9962 19.9796C22.9962 18.3211 21.6517 16.9766 19.9932 16.9766C18.3347 16.9766 16.9902 18.3211 16.9902 19.9796C16.9902 21.6381 18.3347 22.9826 19.9932 22.9826Z" fill="black"/>
</svg>
