<svg width="48" height="48" viewBox="0 0 48 48" fill="none" xmlns="http://www.w3.org/2000/svg">
<circle cx="24" cy="24" r="24" fill="#FFCC49"/>
<g clip-path="url(#clip0)">
<path d="M19.3547 27.7676H18.2129V36.0008H19.3547V27.7676Z" fill="black"/>
<path d="M24.1028 26.3848H22.9609V36.0001H24.1028V26.3848Z" fill="black"/>
<path d="M14.6071 32.9355H13.5254V36.0005H14.6071V32.9355Z" fill="black"/>
<path d="M28.7903 22.8984H27.6484V35.9994H28.7903V22.8984Z" fill="black"/>
<path d="M33.4782 19.7734H32.3965V35.9994H33.4782V19.7734Z" fill="black"/>
<path d="M35.0348 11.1623C34.9146 11.0601 34.7644 11 34.6021 11H30.4855C30.155 11 29.8846 11.2704 29.8846 11.601C29.8846 11.9315 30.155 12.2019 30.4855 12.2019L33.1418 12.1959L26.6454 18.6983L24.3678 16.4087C24.2536 16.2945 24.1033 16.2284 23.9411 16.2224C23.7788 16.2284 23.6286 16.2945 23.5144 16.4087L11.9759 27.9591C11.7355 28.1875 11.7295 28.5721 11.9579 28.8125C12.1863 29.0529 12.5709 29.0589 12.8113 28.8305C12.8173 28.8245 12.8233 28.8185 12.8293 28.8185L23.9471 17.7007L26.2247 19.9724C26.3389 20.0805 26.4891 20.1406 26.6514 20.1406C26.8077 20.1406 26.9639 20.0805 27.0781 19.9724L34.0071 13.0433L34.0011 15.6935C34.0011 16.024 34.2655 16.2885 34.5961 16.2885H34.6021C34.9326 16.2945 35.197 16.03 35.203 15.6995C35.203 15.6995 35.203 15.6995 35.203 15.6935L35.209 11.5829C35.2091 11.4267 35.143 11.2764 35.0348 11.1623Z" fill="black"/>
</g>
<defs>
<clipPath id="clip0">
<rect width="25" height="25" fill="white" transform="translate(11 11)"/>
</clipPath>
</defs>
</svg>
