<svg width="703" height="800" viewBox="0 0 703 1017" fill="none" xmlns="http://www.w3.org/2000/svg">
<path d="M63.8613 0.718183C178.076 5.87876 206.281 175.991 306.368 231.255C411.849 289.496 571.968 228.341 646.943 322.666C721.488 416.45 717.997 569.659 657.585 673.115C599.438 772.694 458.566 771.843 355.019 822.589C285.766 856.528 224.344 894.567 151.875 920.952C50.7334 957.775 -50.1848 1044.1 -151.183 1006.89C-252.139 969.689 -290.011 846.356 -325.879 744.92C-359.634 649.458 -373.664 547.465 -348.297 449.44C-323.516 353.684 -254.087 281.8 -187.178 208.955C-111.787 126.875 -47.4739 -4.31231 63.8613 0.718183Z" fill="#B7FFFF"/>
</svg>
