<svg width="269" height="107" viewBox="0 0 269 147" fill="none" xmlns="http://www.w3.org/2000/svg">
<path d="M0 3.90958C0 1.75038 1.75038 0 3.90957 0H264.287C266.446 0 268.197 1.75038 268.197 3.90957V143.09C268.197 145.25 266.446 147 264.287 147H3.90958C1.75038 147 0 145.25 0 143.09V3.90958Z" fill="black"/>
<path d="M203.299 10.1641C203.299 8.86858 204.349 7.81836 205.645 7.81836H250.214C251.509 7.81836 252.559 8.86859 252.559 10.1641V17.9833C252.559 19.2788 251.509 20.329 250.214 20.329H205.645C204.349 20.329 203.299 19.2788 203.299 17.9833V10.1641Z" fill="#FFCC49"/>
<path d="M215.865 11.3841V16.8184H214.973V13.0964L213.316 16.8184H212.698L211.033 13.0964V16.8184H210.141V11.3841H211.103L213.011 15.6455L214.911 11.3841H215.865ZM218.905 16.8887C218.499 16.8887 218.131 16.7975 217.803 16.6151C217.474 16.4274 217.216 16.1668 217.029 15.8331C216.841 15.4943 216.747 15.1034 216.747 14.6603C216.747 14.2224 216.843 13.8341 217.036 13.4952C217.229 13.1564 217.492 12.8958 217.826 12.7133C218.16 12.5309 218.532 12.4396 218.944 12.4396C219.356 12.4396 219.729 12.5309 220.062 12.7133C220.396 12.8958 220.659 13.1564 220.852 13.4952C221.045 13.8341 221.141 14.2224 221.141 14.6603C221.141 15.0981 221.042 15.4865 220.844 15.8253C220.646 16.1642 220.375 16.4274 220.031 16.6151C219.692 16.7975 219.317 16.8887 218.905 16.8887ZM218.905 16.1146C219.134 16.1146 219.348 16.0599 219.546 15.9504C219.75 15.841 219.914 15.6768 220.039 15.4578C220.164 15.2389 220.227 14.973 220.227 14.6603C220.227 14.3475 220.167 14.0843 220.047 13.8705C219.927 13.6516 219.768 13.4874 219.57 13.3779C219.372 13.2685 219.158 13.2137 218.929 13.2137C218.699 13.2137 218.485 13.2685 218.287 13.3779C218.095 13.4874 217.941 13.6516 217.826 13.8705C217.711 14.0843 217.654 14.3475 217.654 14.6603C217.654 15.1242 217.771 15.4839 218.006 15.7393C218.246 15.9895 218.545 16.1146 218.905 16.1146ZM221.725 14.6446C221.725 14.212 221.814 13.8288 221.991 13.4952C222.174 13.1616 222.419 12.9036 222.726 12.7211C223.039 12.5335 223.386 12.4396 223.766 12.4396C224.048 12.4396 224.324 12.5022 224.595 12.6273C224.871 12.7472 225.09 12.9088 225.252 13.1121V11.0322H226.151V16.8184H225.252V16.1694C225.106 16.3779 224.903 16.5499 224.642 16.6854C224.387 16.821 224.092 16.8887 223.758 16.8887C223.383 16.8887 223.039 16.7949 222.726 16.6072C222.419 16.4144 222.174 16.1485 221.991 15.8097C221.814 15.4656 221.725 15.0773 221.725 14.6446ZM225.252 14.6603C225.252 14.3631 225.189 14.1051 225.064 13.8862C224.944 13.6672 224.785 13.5004 224.587 13.3858C224.389 13.2711 224.175 13.2137 223.946 13.2137C223.717 13.2137 223.503 13.2711 223.305 13.3858C223.107 13.4952 222.945 13.6594 222.82 13.8784C222.7 14.0921 222.64 14.3475 222.64 14.6446C222.64 14.9418 222.7 15.2024 222.82 15.4266C222.945 15.6507 223.107 15.8227 223.305 15.9426C223.508 16.0573 223.722 16.1146 223.946 16.1146C224.175 16.1146 224.389 16.0573 224.587 15.9426C224.785 15.8279 224.944 15.6611 225.064 15.4422C225.189 15.218 225.252 14.9574 225.252 14.6603ZM227.775 11.9392C227.614 11.9392 227.478 11.8845 227.369 11.775C227.259 11.6655 227.205 11.53 227.205 11.3684C227.205 11.2068 227.259 11.0713 227.369 10.9618C227.478 10.8523 227.614 10.7976 227.775 10.7976C227.932 10.7976 228.065 10.8523 228.174 10.9618C228.284 11.0713 228.338 11.2068 228.338 11.3684C228.338 11.53 228.284 11.6655 228.174 11.775C228.065 11.8845 227.932 11.9392 227.775 11.9392ZM228.213 12.51V16.8184H227.322V12.51H228.213ZM231.19 13.2372H230.392V16.8184H229.493V13.2372H228.985V12.51H229.493V12.2051C229.493 11.7098 229.623 11.3502 229.884 11.126C230.15 10.8967 230.564 10.782 231.127 10.782V11.5248C230.856 11.5248 230.666 11.5769 230.556 11.6812C230.447 11.7802 230.392 11.9548 230.392 12.2051V12.51H231.19V13.2372ZM235.858 12.51L233.215 18.8435H232.293L233.168 16.748L231.472 12.51H232.465L233.677 15.7941L234.935 12.51H235.858Z" fill="#484141"/>
<path d="M243.176 12.5098L245.741 16.4193L248.307 12.5098H243.176Z" fill="black"/>
<line x1="25.4124" y1="30.4941" x2="25.4124" y2="118.851" stroke="#F9F9F9" stroke-opacity="0.35" stroke-width="0.781915"/>
<line x1="25.0215" y1="118.461" x2="251.777" y2="118.461" stroke="#F9F9F9" stroke-opacity="0.35" stroke-width="0.781915"/>
<line x1="59.9825" y1="36.75" x2="59.9825" y2="116.852" stroke="#FFCC49" stroke-opacity="0.55" stroke-width="0.234574"/>
<line x1="97.4981" y1="36.75" x2="97.4981" y2="116.852" stroke="#FFCC49" stroke-opacity="0.55" stroke-width="0.234574"/>
<line x1="247.561" y1="36.75" x2="247.561" y2="116.852" stroke="#FFCC49" stroke-opacity="0.55" stroke-width="0.234574"/>
<line x1="135.014" y1="36.0898" x2="135.014" y2="116.192" stroke="#FFCC49" stroke-opacity="0.55" stroke-width="0.234574"/>
<line x1="172.529" y1="36.0898" x2="172.529" y2="116.192" stroke="#FFCC49" stroke-opacity="0.55" stroke-width="0.234574"/>
<line x1="210.045" y1="33.623" x2="210.045" y2="116.366" stroke="#FFCC49" stroke-opacity="0.55" stroke-width="0.234574"/>
<path d="M55.6541 122.002V124.421C55.6525 124.814 55.4692 125.024 55.1427 125.024C54.8411 125.024 54.6312 124.844 54.6295 124.561H54.1181C54.1181 125.138 54.5512 125.461 55.1293 125.461C55.7557 125.461 56.1656 125.078 56.1673 124.421V122.002H55.6541ZM57.4571 125.471C57.8802 125.471 58.1185 125.256 58.2134 125.064H58.2334V125.414H58.7199V123.715C58.7199 122.97 58.1335 122.822 57.727 122.822C57.2638 122.822 56.8373 123.008 56.6707 123.475L57.1389 123.581C57.2122 123.4 57.3988 123.225 57.7336 123.225C58.0552 123.225 58.2201 123.393 58.2201 123.683V123.695C58.2201 123.876 58.0335 123.873 57.5737 123.926C57.0889 123.983 56.5924 124.11 56.5924 124.691C56.5924 125.194 56.9706 125.471 57.4571 125.471ZM57.5654 125.071C57.2838 125.071 57.0805 124.944 57.0805 124.698C57.0805 124.431 57.3171 124.336 57.6053 124.298C57.7669 124.276 58.1501 124.233 58.2218 124.161V124.491C58.2218 124.794 57.9802 125.071 57.5654 125.071ZM59.7173 123.895C59.7173 123.486 59.9672 123.253 60.3138 123.253C60.652 123.253 60.8569 123.475 60.8569 123.846V125.414H61.355V123.786C61.355 123.153 61.0068 122.822 60.4837 122.822C60.0988 122.822 59.8473 123 59.729 123.272H59.6973V122.855H59.2192V125.414H59.7173V123.895Z" fill="#B2B2B2"/>
<path d="M91.078 125.414H91.5928V123.926H93.0422V123.485H91.5928V122.445H93.1938V122.002H91.078V125.414ZM94.5378 125.466C95.0959 125.466 95.4907 125.191 95.604 124.774L95.1325 124.689C95.0426 124.931 94.826 125.054 94.5428 125.054C94.1163 125.054 93.8297 124.778 93.8164 124.285H95.6357V124.108C95.6357 123.183 95.0826 122.822 94.5028 122.822C93.7897 122.822 93.3199 123.365 93.3199 124.151C93.3199 124.946 93.7831 125.466 94.5378 125.466ZM93.8181 123.911C93.838 123.548 94.1013 123.233 94.5061 123.233C94.8926 123.233 95.1459 123.52 95.1475 123.911H93.8181ZM96.0642 125.414H96.5506V125.016H96.5923C96.6822 125.179 96.8655 125.464 97.332 125.464C97.9517 125.464 98.4016 124.968 98.4016 124.14C98.4016 123.31 97.9451 122.822 97.327 122.822C96.8522 122.822 96.6806 123.112 96.5923 123.27H96.5623V122.002H96.0642V125.414ZM96.5523 124.135C96.5523 123.6 96.7855 123.245 97.2204 123.245C97.6719 123.245 97.8984 123.626 97.8984 124.135C97.8984 124.648 97.6652 125.039 97.2204 125.039C96.7922 125.039 96.5523 124.673 96.5523 124.135Z" fill="#B2B2B2"/>
<path d="M127.045 122.002V125.414H127.535V122.943H127.566L128.573 125.409H128.979L129.985 122.945H130.017V125.414H130.507V122.002H129.882L128.796 124.654H128.756L127.67 122.002H127.045ZM131.796 125.471C132.219 125.471 132.457 125.256 132.552 125.064H132.572V125.414H133.059V123.715C133.059 122.97 132.472 122.822 132.066 122.822C131.602 122.822 131.176 123.008 131.009 123.475L131.478 123.581C131.551 123.4 131.737 123.225 132.072 123.225C132.394 123.225 132.559 123.393 132.559 123.683V123.695C132.559 123.876 132.372 123.873 131.912 123.926C131.428 123.983 130.931 124.11 130.931 124.691C130.931 125.194 131.309 125.471 131.796 125.471ZM131.904 125.071C131.622 125.071 131.419 124.944 131.419 124.698C131.419 124.431 131.656 124.336 131.944 124.298C132.106 124.276 132.489 124.233 132.56 124.161V124.491C132.56 124.794 132.319 125.071 131.904 125.071ZM133.558 125.414H134.056V123.851C134.056 123.516 134.314 123.275 134.667 123.275C134.771 123.275 134.887 123.293 134.927 123.305V122.828C134.877 122.822 134.779 122.817 134.716 122.817C134.416 122.817 134.159 122.987 134.066 123.262H134.039V122.855H133.558V125.414Z" fill="#B2B2B2"/>
<path d="M164.866 125.414L165.179 124.511H166.512L166.824 125.414H167.37L166.142 122.002H165.548L164.32 125.414H164.866ZM165.329 124.078L165.832 122.622H165.859L166.362 124.078H165.329ZM167.659 126.374H168.157V125.016H168.187C168.277 125.179 168.46 125.464 168.927 125.464C169.546 125.464 169.996 124.968 169.996 124.14C169.996 123.31 169.54 122.822 168.922 122.822C168.447 122.822 168.275 123.112 168.187 123.27H168.145V122.855H167.659V126.374ZM168.147 124.135C168.147 123.6 168.38 123.245 168.815 123.245C169.266 123.245 169.493 123.626 169.493 124.135C169.493 124.648 169.26 125.039 168.815 125.039C168.387 125.039 168.147 124.673 168.147 124.135ZM170.39 125.414H170.888V123.851C170.888 123.516 171.146 123.275 171.5 123.275C171.603 123.275 171.72 123.293 171.76 123.305V122.828C171.71 122.822 171.611 122.817 171.548 122.817C171.248 122.817 170.992 122.987 170.898 123.262H170.872V122.855H170.39V125.414Z" fill="#B2B2B2"/>
<path d="M200.545 122.002V125.414H201.035V122.943H201.066L202.073 125.409H202.479L203.485 122.945H203.517V125.414H204.007V122.002H203.382L202.296 124.654H202.256L201.17 122.002H200.545ZM205.296 125.471C205.719 125.471 205.957 125.256 206.052 125.064H206.072V125.414H206.559V123.715C206.559 122.97 205.972 122.822 205.566 122.822C205.102 122.822 204.676 123.008 204.509 123.475L204.978 123.581C205.051 123.4 205.237 123.225 205.572 123.225C205.894 123.225 206.059 123.393 206.059 123.683V123.695C206.059 123.876 205.872 123.873 205.412 123.926C204.928 123.983 204.431 124.11 204.431 124.691C204.431 125.194 204.809 125.471 205.296 125.471ZM205.404 125.071C205.122 125.071 204.919 124.944 204.919 124.698C204.919 124.431 205.156 124.336 205.444 124.298C205.606 124.276 205.989 124.233 206.06 124.161V124.491C206.06 124.794 205.819 125.071 205.404 125.071ZM207.281 126.374C207.693 126.374 207.952 126.159 208.101 125.756L209.159 122.86L208.621 122.855L207.972 124.841H207.946L207.298 122.855H206.765L207.701 125.447L207.639 125.617C207.513 125.957 207.334 125.986 207.061 125.911L206.941 126.319C207.001 126.345 207.131 126.374 207.281 126.374Z" fill="#B2B2B2"/>
<path d="M239.404 122.002V124.421C239.402 124.814 239.219 125.024 238.893 125.024C238.591 125.024 238.381 124.844 238.38 124.561H237.868C237.868 125.138 238.301 125.461 238.879 125.461C239.506 125.461 239.916 125.078 239.917 124.421V122.002H239.404ZM242.083 124.353C242.085 124.788 241.762 124.994 241.482 124.994C241.174 124.994 240.96 124.771 240.96 124.423V122.855H240.462V124.483C240.462 125.118 240.811 125.447 241.302 125.447C241.687 125.447 241.948 125.244 242.067 124.971H242.093V125.414H242.583V122.855H242.083V124.353ZM243.586 123.895C243.586 123.486 243.836 123.253 244.183 123.253C244.521 123.253 244.726 123.475 244.726 123.846V125.414H245.224V123.786C245.224 123.153 244.876 122.822 244.353 122.822C243.968 122.822 243.716 123 243.598 123.272H243.566V122.855H243.088V125.414H243.586V123.895Z" fill="#B2B2B2"/>
<path d="M18.9814 97.3357V96.9323L20.5578 94.671H21.2052V96.8713H21.6415V97.3357H21.2052V98.0488H20.6798V97.3357H18.9814ZM20.7032 95.2152L19.596 96.8713H20.7032V95.2152Z" fill="#B2B2B2"/>
<path d="M19.6242 70.4567C19.2989 70.294 19.1363 70.0376 19.1363 69.6873C19.1363 69.5184 19.1785 69.3636 19.2629 69.2228C19.3474 69.0821 19.474 68.971 19.6429 68.8897C19.8118 68.8053 20.0183 68.7631 20.2622 68.7631C20.503 68.7631 20.7079 68.8053 20.8768 68.8897C21.0488 68.971 21.1771 69.0821 21.2615 69.2228C21.3459 69.3636 21.3882 69.5184 21.3882 69.6873C21.3882 69.8624 21.3428 70.0172 21.2521 70.1517C21.1645 70.2831 21.0473 70.3847 20.9003 70.4567C21.0785 70.5224 21.2193 70.6303 21.3225 70.7804C21.4257 70.9274 21.4773 71.101 21.4773 71.3012C21.4773 71.5044 21.4257 71.6843 21.3225 71.8407C21.2193 71.9971 21.0754 72.1175 20.8909 72.2019C20.7063 72.2864 20.4968 72.3286 20.2622 72.3286C20.0276 72.3286 19.8181 72.2864 19.6336 72.2019C19.4521 72.1175 19.3098 71.9971 19.2066 71.8407C19.1034 71.6843 19.0518 71.5044 19.0518 71.3012C19.0518 71.0979 19.1034 70.9227 19.2066 70.7757C19.3098 70.6287 19.449 70.5224 19.6242 70.4567ZM20.8768 69.753C20.8768 69.5778 20.8221 69.4433 20.7126 69.3495C20.6031 69.2557 20.453 69.2087 20.2622 69.2087C20.0746 69.2087 19.926 69.2557 19.8165 69.3495C19.7071 69.4433 19.6523 69.5794 19.6523 69.7577C19.6523 69.914 19.7086 70.0423 19.8212 70.1424C19.9369 70.2393 20.0839 70.2878 20.2622 70.2878C20.4405 70.2878 20.5875 70.2377 20.7032 70.1377C20.8189 70.0376 20.8768 69.9093 20.8768 69.753ZM20.2622 70.6913C20.0558 70.6913 19.8869 70.7429 19.7555 70.8461C19.6273 70.9462 19.5632 71.0916 19.5632 71.2824C19.5632 71.4607 19.6257 71.6061 19.7508 71.7187C19.8759 71.8282 20.0464 71.8829 20.2622 71.8829C20.4749 71.8829 20.6422 71.8266 20.7642 71.714C20.8893 71.6014 20.9519 71.4575 20.9519 71.2824C20.9519 71.0947 20.8877 70.9493 20.7595 70.8461C20.6344 70.7429 20.4686 70.6913 20.2622 70.6913Z" fill="#B3B3B3"/>
<path d="M18.9767 43.5092V43.0213H19.9526V46.4414H19.4131V43.5092H18.9767ZM20.9829 45.7142C21.2831 45.4546 21.5193 45.2419 21.6913 45.0762C21.8664 44.9073 22.0119 44.7321 22.1276 44.5507C22.2433 44.3693 22.3012 44.1879 22.3012 44.0065C22.3012 43.8189 22.2558 43.6719 22.1651 43.5655C22.0775 43.4592 21.9384 43.406 21.7476 43.406C21.563 43.406 21.4192 43.4654 21.316 43.5843C21.2159 43.7 21.1627 43.8564 21.1565 44.0534H20.6404C20.6498 43.6969 20.7561 43.4248 20.9594 43.2371C21.1658 43.0463 21.427 42.9509 21.7429 42.9509C22.0838 42.9509 22.3497 43.0448 22.5404 43.2324C22.7344 43.4201 22.8313 43.6703 22.8313 43.9831C22.8313 44.2083 22.7735 44.4256 22.6577 44.6352C22.5451 44.8416 22.4091 45.0277 22.2496 45.1935C22.0932 45.3561 21.893 45.5453 21.6491 45.7611L21.4379 45.9488H22.9251V46.3945H20.6451V46.0051L20.9829 45.7142Z" fill="#B2B2B2"/>
<path d="M120.215 87.574C102.782 87.574 105.156 72.1515 85.5082 72.1515C79.9464 72.1515 67.1867 62.9686 54.3294 78.3981C43.4204 91.4895 39.3763 64.8687 27.1387 72.1515M120.215 87.574C143.715 87.574 97.4211 87.574 120.215 87.574ZM120.215 87.574C140.633 87.574 101.393 87.574 120.215 87.574ZM120.215 87.574C137.647 87.574 143.22 76.3863 158.386 76.5981C177.213 76.8611 166.894 64.8984 185.724 64.8984C203.927 64.8984 238.639 92.9619 253.031 83.6165" stroke="#F59300" stroke-width="1.56383" stroke-linecap="square" stroke-linejoin="round"/>
<path d="M115.938 70.3715C98.334 70.3715 94.4271 56.1638 74.5864 56.1638C68.9699 56.1638 60.99 40.5245 48.0063 58.7478C36.9901 74.2096 29.3157 47.5082 27.1387 49.3516M115.938 70.3715C139.669 70.3715 92.9203 70.3715 115.938 70.3715ZM115.938 70.3715C136.557 70.3715 96.9315 70.3715 115.938 70.3715ZM115.938 70.3715C133.542 70.3715 147.652 48.6515 162.53 52.0209C180.822 56.1638 202.485 52.0209 224.307 56.1639C242.313 59.5823 238.497 60.3892 253.031 49.3516" stroke="#00D47B" stroke-width="1.56383" stroke-linecap="square" stroke-linejoin="round"/>
<line x1="116.506" y1="20.7204" x2="122.761" y2="20.7204" stroke="#00D47B" stroke-width="0.781915"/>
<line x1="116.506" y1="27.7575" x2="122.761" y2="27.7575" stroke="#F59300" stroke-width="0.781915"/>
<path d="M129.911 25.9796V26.416H129.044V29.2402H128.509V26.416H127.636V25.9796H129.911ZM131.574 29.2825C131.33 29.2825 131.11 29.2277 130.913 29.1183C130.716 29.0057 130.561 28.8493 130.448 28.6491C130.336 28.4458 130.28 28.2112 130.28 27.9454C130.28 27.6827 130.337 27.4496 130.453 27.2464C130.569 27.0431 130.727 26.8867 130.927 26.7772C131.127 26.6677 131.351 26.613 131.598 26.613C131.845 26.613 132.069 26.6677 132.269 26.7772C132.469 26.8867 132.627 27.0431 132.743 27.2464C132.858 27.4496 132.916 27.6827 132.916 27.9454C132.916 28.2081 132.857 28.4411 132.738 28.6444C132.619 28.8477 132.456 29.0057 132.25 29.1183C132.047 29.2277 131.821 29.2825 131.574 29.2825ZM131.574 28.818C131.712 28.818 131.84 28.7852 131.959 28.7195C132.081 28.6538 132.18 28.5553 132.255 28.4239C132.33 28.2926 132.367 28.133 132.367 27.9454C132.367 27.7577 132.331 27.5998 132.259 27.4715C132.187 27.3402 132.092 27.2417 131.973 27.176C131.854 27.1103 131.726 27.0775 131.588 27.0775C131.451 27.0775 131.323 27.1103 131.204 27.176C131.088 27.2417 130.996 27.3402 130.927 27.4715C130.858 27.5998 130.824 27.7577 130.824 27.9454C130.824 28.2237 130.894 28.4396 131.035 28.5928C131.179 28.7429 131.359 28.818 131.574 28.818ZM134.069 27.0915V28.5224C134.069 28.6194 134.091 28.6898 134.135 28.7336C134.181 28.7742 134.26 28.7945 134.369 28.7945H134.697V29.2402H134.275C134.034 29.2402 133.85 29.1839 133.722 29.0713C133.593 28.9587 133.529 28.7758 133.529 28.5224V27.0915H133.224V26.6552H133.529V26.0125H134.069V26.6552H134.697V27.0915H134.069ZM135.012 27.936C135.012 27.6764 135.065 27.4465 135.172 27.2464C135.281 27.0462 135.428 26.8914 135.613 26.7819C135.8 26.6693 136.007 26.613 136.232 26.613C136.435 26.613 136.612 26.6537 136.762 26.735C136.915 26.8132 137.037 26.9117 137.128 27.0305V26.6552H137.668V29.2402H137.128V28.8555C137.037 28.9775 136.914 29.0792 136.757 29.1605C136.601 29.2418 136.423 29.2825 136.223 29.2825C136 29.2825 135.797 29.2262 135.613 29.1136C135.428 28.9978 135.281 28.8383 135.172 28.635C135.065 28.4286 135.012 28.1956 135.012 27.936ZM137.128 27.9454C137.128 27.7671 137.09 27.6123 137.015 27.4809C136.943 27.3496 136.848 27.2495 136.729 27.1807C136.61 27.1119 136.482 27.0775 136.345 27.0775C136.207 27.0775 136.079 27.1119 135.96 27.1807C135.841 27.2464 135.744 27.3449 135.669 27.4762C135.597 27.6045 135.561 27.7577 135.561 27.936C135.561 28.1143 135.597 28.2707 135.669 28.4051C135.744 28.5396 135.841 28.6429 135.96 28.7148C136.082 28.7836 136.21 28.818 136.345 28.818C136.482 28.818 136.61 28.7836 136.729 28.7148C136.848 28.646 136.943 28.5459 137.015 28.4145C137.09 28.28 137.128 28.1237 137.128 27.9454ZM138.905 25.7685V29.2402H138.37V25.7685H138.905ZM143.106 26.9508C143.106 27.1166 143.067 27.2729 142.988 27.4199C142.91 27.5669 142.785 27.6874 142.613 27.7812C142.441 27.8719 142.221 27.9172 141.952 27.9172H141.361V29.2402H140.826V25.9796H141.952C142.202 25.9796 142.413 26.0234 142.585 26.111C142.76 26.1955 142.89 26.3112 142.974 26.4582C143.062 26.6052 143.106 26.7694 143.106 26.9508ZM141.952 27.4809C142.155 27.4809 142.307 27.4356 142.407 27.3449C142.507 27.251 142.557 27.1197 142.557 26.9508C142.557 26.5942 142.355 26.416 141.952 26.416H141.361V27.4809H141.952ZM145.957 26.6552V29.2402H145.422V28.9353C145.338 29.0416 145.227 29.1261 145.089 29.1886C144.954 29.2481 144.811 29.2778 144.657 29.2778C144.454 29.2778 144.271 29.2355 144.108 29.1511C143.949 29.0666 143.822 28.9415 143.728 28.7758C143.638 28.61 143.592 28.4098 143.592 28.1753V26.6552H144.123V28.0955C144.123 28.327 144.18 28.5052 144.296 28.6303C144.412 28.7523 144.57 28.8133 144.77 28.8133C144.97 28.8133 145.128 28.7523 145.244 28.6303C145.363 28.5052 145.422 28.327 145.422 28.0955V26.6552H145.957ZM147.197 27.0305C147.276 26.8992 147.379 26.7975 147.507 26.7256C147.638 26.6505 147.793 26.613 147.972 26.613V27.1666H147.835C147.626 27.1666 147.466 27.2198 147.357 27.3261C147.251 27.4324 147.197 27.617 147.197 27.8797V29.2402H146.663V26.6552H147.197V27.0305ZM148.285 27.9454C148.285 27.6795 148.338 27.4465 148.444 27.2464C148.554 27.0431 148.704 26.8867 148.895 26.7772C149.086 26.6677 149.304 26.613 149.552 26.613C149.864 26.613 150.122 26.6881 150.326 26.8382C150.532 26.9852 150.671 27.1963 150.743 27.4715H150.166C150.119 27.3433 150.044 27.2432 149.941 27.1713C149.838 27.0994 149.708 27.0634 149.552 27.0634C149.333 27.0634 149.157 27.1416 149.026 27.298C148.898 27.4512 148.834 27.667 148.834 27.9454C148.834 28.2237 148.898 28.4411 149.026 28.5975C149.157 28.7539 149.333 28.8321 149.552 28.8321C149.861 28.8321 150.066 28.696 150.166 28.4239H150.743C150.668 28.6866 150.527 28.8962 150.321 29.0526C150.115 29.2058 149.858 29.2825 149.552 29.2825C149.304 29.2825 149.086 29.2277 148.895 29.1183C148.704 29.0057 148.554 28.8493 148.444 28.6491C148.338 28.4458 148.285 28.2112 148.285 27.9454ZM152.613 26.613C152.81 26.613 152.985 26.6552 153.139 26.7397C153.295 26.8241 153.417 26.9492 153.505 27.115C153.595 27.2808 153.641 27.4809 153.641 27.7155V29.2402H153.111V27.7953C153.111 27.5638 153.053 27.3871 152.937 27.2651C152.821 27.14 152.663 27.0775 152.463 27.0775C152.263 27.0775 152.103 27.14 151.985 27.2651C151.869 27.3871 151.811 27.5638 151.811 27.7953V29.2402H151.276V25.7685H151.811V26.9555C151.902 26.846 152.016 26.7616 152.153 26.7021C152.294 26.6427 152.447 26.613 152.613 26.613ZM154.145 27.936C154.145 27.6764 154.198 27.4465 154.304 27.2464C154.414 27.0462 154.561 26.8914 154.745 26.7819C154.933 26.6693 155.139 26.613 155.364 26.613C155.568 26.613 155.744 26.6537 155.895 26.735C156.048 26.8132 156.17 26.9117 156.26 27.0305V26.6552H156.8V29.2402H156.26V28.8555C156.17 28.9775 156.046 29.0792 155.89 29.1605C155.733 29.2418 155.555 29.2825 155.355 29.2825C155.133 29.2825 154.93 29.2262 154.745 29.1136C154.561 28.9978 154.414 28.8383 154.304 28.635C154.198 28.4286 154.145 28.1956 154.145 27.936ZM156.26 27.9454C156.26 27.7671 156.223 27.6123 156.148 27.4809C156.076 27.3496 155.981 27.2495 155.862 27.1807C155.743 27.1119 155.615 27.0775 155.477 27.0775C155.339 27.0775 155.211 27.1119 155.092 27.1807C154.973 27.2464 154.876 27.3449 154.801 27.4762C154.729 27.6045 154.694 27.7577 154.694 27.936C154.694 28.1143 154.729 28.2707 154.801 28.4051C154.876 28.5396 154.973 28.6429 155.092 28.7148C155.214 28.7836 155.343 28.818 155.477 28.818C155.615 28.818 155.743 28.7836 155.862 28.7148C155.981 28.646 156.076 28.5459 156.148 28.4145C156.223 28.28 156.26 28.1237 156.26 27.9454ZM158.441 29.2825C158.237 29.2825 158.055 29.2465 157.892 29.1746C157.732 29.0995 157.606 28.9994 157.512 28.8743C157.418 28.7461 157.368 28.6038 157.362 28.4474H157.915C157.925 28.5568 157.976 28.6491 158.07 28.7242C158.167 28.7961 158.288 28.8321 158.431 28.8321C158.582 28.8321 158.697 28.8039 158.779 28.7476C158.863 28.6882 158.905 28.6131 158.905 28.5224C158.905 28.4255 158.858 28.3535 158.764 28.3066C158.674 28.2597 158.528 28.2081 158.328 28.1518C158.134 28.0986 157.976 28.047 157.854 27.997C157.732 27.9469 157.626 27.8703 157.535 27.7671C157.448 27.6639 157.404 27.5278 157.404 27.3589C157.404 27.2213 157.445 27.0962 157.526 26.9836C157.607 26.8679 157.723 26.7772 157.873 26.7115C158.026 26.6458 158.202 26.613 158.399 26.613C158.693 26.613 158.929 26.6881 159.107 26.8382C159.288 26.9852 159.385 27.1869 159.398 27.4434H158.863C158.854 27.3277 158.807 27.2354 158.722 27.1666C158.638 27.0978 158.524 27.0634 158.38 27.0634C158.239 27.0634 158.131 27.09 158.056 27.1431C157.981 27.1963 157.943 27.2667 157.943 27.3543C157.943 27.4231 157.969 27.4809 158.019 27.5278C158.069 27.5748 158.13 27.6123 158.202 27.6404C158.273 27.6655 158.38 27.6983 158.521 27.739C158.708 27.789 158.861 27.8406 158.98 27.8938C159.102 27.9438 159.207 28.0189 159.295 28.119C159.382 28.2191 159.428 28.352 159.431 28.5177C159.431 28.6647 159.39 28.7961 159.309 28.9118C159.227 29.0276 159.112 29.1183 158.962 29.1839C158.815 29.2496 158.641 29.2825 158.441 29.2825ZM162.378 27.8844C162.378 27.9814 162.372 28.0689 162.359 28.1471H160.384C160.4 28.3535 160.476 28.5193 160.614 28.6444C160.751 28.7695 160.92 28.8321 161.12 28.8321C161.408 28.8321 161.612 28.7117 161.73 28.4708H162.307C162.229 28.7085 162.087 28.904 161.88 29.0573C161.677 29.2074 161.424 29.2825 161.12 29.2825C160.873 29.2825 160.651 29.2277 160.454 29.1183C160.26 29.0057 160.107 28.8493 159.995 28.6491C159.885 28.4458 159.83 28.2112 159.83 27.9454C159.83 27.6795 159.883 27.4465 159.99 27.2464C160.099 27.0431 160.251 26.8867 160.445 26.7772C160.642 26.6677 160.867 26.613 161.12 26.613C161.364 26.613 161.582 26.6662 161.773 26.7725C161.963 26.8789 162.112 27.029 162.218 27.2229C162.325 27.4137 162.378 27.6342 162.378 27.8844ZM161.819 27.7155C161.816 27.5185 161.746 27.3605 161.608 27.2417C161.471 27.1228 161.3 27.0634 161.097 27.0634C160.912 27.0634 160.755 27.1228 160.623 27.2417C160.492 27.3574 160.414 27.5153 160.389 27.7155H161.819ZM163.842 29.2825C163.639 29.2825 163.456 29.2465 163.294 29.1746C163.134 29.0995 163.007 28.9994 162.913 28.8743C162.82 28.7461 162.77 28.6038 162.763 28.4474H163.317C163.326 28.5568 163.378 28.6491 163.472 28.7242C163.569 28.7961 163.689 28.8321 163.833 28.8321C163.983 28.8321 164.099 28.8039 164.18 28.7476C164.265 28.6882 164.307 28.6131 164.307 28.5224C164.307 28.4255 164.26 28.3535 164.166 28.3066C164.075 28.2597 163.93 28.2081 163.73 28.1518C163.536 28.0986 163.378 28.047 163.256 27.997C163.134 27.9469 163.028 27.8703 162.937 27.7671C162.849 27.6639 162.806 27.5278 162.806 27.3589C162.806 27.2213 162.846 27.0962 162.928 26.9836C163.009 26.8679 163.125 26.7772 163.275 26.7115C163.428 26.6458 163.603 26.613 163.8 26.613C164.094 26.613 164.33 26.6881 164.509 26.8382C164.69 26.9852 164.787 27.1869 164.799 27.4434H164.265C164.255 27.3277 164.208 27.2354 164.124 27.1666C164.039 27.0978 163.925 27.0634 163.781 27.0634C163.641 27.0634 163.533 27.09 163.458 27.1431C163.383 27.1963 163.345 27.2667 163.345 27.3543C163.345 27.4231 163.37 27.4809 163.42 27.5278C163.47 27.5748 163.531 27.6123 163.603 27.6404C163.675 27.6655 163.781 27.6983 163.922 27.739C164.11 27.789 164.263 27.8406 164.382 27.8938C164.504 27.9438 164.609 28.0189 164.696 28.119C164.784 28.2191 164.829 28.352 164.832 28.5177C164.832 28.6647 164.792 28.7961 164.71 28.9118C164.629 29.0276 164.513 29.1183 164.363 29.1839C164.216 29.2496 164.043 29.2825 163.842 29.2825Z" fill="white"/>
<path d="M129.911 17.3781V17.8144H129.044V20.6387H128.509V17.8144H127.636V17.3781H129.911ZM131.574 20.6809C131.33 20.6809 131.11 20.6262 130.913 20.5167C130.716 20.4041 130.561 20.2477 130.448 20.0475C130.336 19.8442 130.28 19.6097 130.28 19.3438C130.28 19.0811 130.337 18.8481 130.453 18.6448C130.569 18.4415 130.727 18.2851 130.927 18.1756C131.127 18.0662 131.351 18.0114 131.598 18.0114C131.845 18.0114 132.069 18.0662 132.269 18.1756C132.469 18.2851 132.627 18.4415 132.743 18.6448C132.858 18.8481 132.916 19.0811 132.916 19.3438C132.916 19.6065 132.857 19.8396 132.738 20.0429C132.619 20.2462 132.456 20.4041 132.25 20.5167C132.047 20.6262 131.821 20.6809 131.574 20.6809ZM131.574 20.2164C131.712 20.2164 131.84 20.1836 131.959 20.1179C132.081 20.0522 132.18 19.9537 132.255 19.8224C132.33 19.691 132.367 19.5315 132.367 19.3438C132.367 19.1562 132.331 18.9982 132.259 18.87C132.187 18.7386 132.092 18.6401 131.973 18.5744C131.854 18.5087 131.726 18.4759 131.588 18.4759C131.451 18.4759 131.323 18.5087 131.204 18.5744C131.088 18.6401 130.996 18.7386 130.927 18.87C130.858 18.9982 130.824 19.1562 130.824 19.3438C130.824 19.6222 130.894 19.838 131.035 19.9912C131.179 20.1414 131.359 20.2164 131.574 20.2164ZM134.069 18.49V19.9209C134.069 20.0178 134.091 20.0882 134.135 20.132C134.181 20.1727 134.26 20.193 134.369 20.193H134.697V20.6387H134.275C134.034 20.6387 133.85 20.5824 133.722 20.4698C133.593 20.3572 133.529 20.1742 133.529 19.9209V18.49H133.224V18.0537H133.529V17.4109H134.069V18.0537H134.697V18.49H134.069ZM135.012 19.3344C135.012 19.0748 135.065 18.845 135.172 18.6448C135.281 18.4446 135.428 18.2898 135.613 18.1803C135.8 18.0677 136.007 18.0114 136.232 18.0114C136.435 18.0114 136.612 18.0521 136.762 18.1334C136.915 18.2116 137.037 18.3101 137.128 18.429V18.0537H137.668V20.6387H137.128V20.254C137.037 20.3759 136.914 20.4776 136.757 20.5589C136.601 20.6402 136.423 20.6809 136.223 20.6809C136 20.6809 135.797 20.6246 135.613 20.512C135.428 20.3963 135.281 20.2368 135.172 20.0335C135.065 19.827 135.012 19.594 135.012 19.3344ZM137.128 19.3438C137.128 19.1655 137.09 19.0107 137.015 18.8794C136.943 18.748 136.848 18.6479 136.729 18.5791C136.61 18.5103 136.482 18.4759 136.345 18.4759C136.207 18.4759 136.079 18.5103 135.96 18.5791C135.841 18.6448 135.744 18.7433 135.669 18.8747C135.597 19.0029 135.561 19.1562 135.561 19.3344C135.561 19.5127 135.597 19.6691 135.669 19.8036C135.744 19.9381 135.841 20.0413 135.96 20.1132C136.082 20.182 136.21 20.2164 136.345 20.2164C136.482 20.2164 136.61 20.182 136.729 20.1132C136.848 20.0444 136.943 19.9443 137.015 19.813C137.09 19.6785 137.128 19.5221 137.128 19.3438ZM138.905 17.167V20.6387H138.37V17.167H138.905ZM141.9 20.6715C141.681 20.6715 141.484 20.634 141.309 20.5589C141.134 20.4807 140.996 20.3713 140.896 20.2305C140.796 20.0898 140.746 19.9256 140.746 19.7379H141.318C141.331 19.8787 141.386 19.9944 141.483 20.0851C141.583 20.1758 141.722 20.2211 141.9 20.2211C142.085 20.2211 142.228 20.1773 142.332 20.0898C142.435 19.9991 142.486 19.8833 142.486 19.7426C142.486 19.6331 142.454 19.544 142.388 19.4752C142.325 19.4064 142.246 19.3532 142.149 19.3157C142.055 19.2781 141.924 19.2375 141.755 19.1937C141.542 19.1374 141.368 19.0811 141.234 19.0248C141.103 18.9654 140.99 18.8747 140.896 18.7527C140.802 18.6307 140.755 18.4681 140.755 18.2648C140.755 18.0771 140.802 17.9129 140.896 17.7722C140.99 17.6314 141.121 17.5235 141.29 17.4485C141.459 17.3734 141.655 17.3359 141.877 17.3359C142.192 17.3359 142.451 17.4156 142.651 17.5751C142.854 17.7315 142.967 17.9473 142.988 18.2226H142.397C142.388 18.1037 142.332 18.0021 142.228 17.9176C142.125 17.8332 141.989 17.7909 141.82 17.7909C141.667 17.7909 141.542 17.83 141.445 17.9082C141.348 17.9864 141.3 18.099 141.3 18.246C141.3 18.3461 141.329 18.429 141.389 18.4947C141.451 18.5572 141.529 18.6073 141.623 18.6448C141.717 18.6823 141.845 18.723 142.008 18.7668C142.224 18.8262 142.399 18.8856 142.533 18.945C142.671 19.0045 142.787 19.0967 142.881 19.2218C142.978 19.3438 143.026 19.508 143.026 19.7144C143.026 19.8802 142.981 20.0366 142.89 20.1836C142.802 20.3306 142.673 20.4494 142.501 20.5402C142.332 20.6277 142.132 20.6715 141.9 20.6715ZM143.479 19.3344C143.479 19.0748 143.532 18.845 143.638 18.6448C143.748 18.4446 143.895 18.2898 144.079 18.1803C144.267 18.0677 144.473 18.0114 144.699 18.0114C144.902 18.0114 145.079 18.0521 145.229 18.1334C145.382 18.2116 145.504 18.3101 145.595 18.429V18.0537H146.134V20.6387H145.595V20.254C145.504 20.3759 145.38 20.4776 145.224 20.5589C145.068 20.6402 144.889 20.6809 144.689 20.6809C144.467 20.6809 144.264 20.6246 144.079 20.512C143.895 20.3963 143.748 20.2368 143.638 20.0335C143.532 19.827 143.479 19.594 143.479 19.3344ZM145.595 19.3438C145.595 19.1655 145.557 19.0107 145.482 18.8794C145.41 18.748 145.315 18.6479 145.196 18.5791C145.077 18.5103 144.949 18.4759 144.811 18.4759C144.674 18.4759 144.545 18.5103 144.426 18.5791C144.308 18.6448 144.211 18.7433 144.136 18.8747C144.064 19.0029 144.028 19.1562 144.028 19.3344C144.028 19.5127 144.064 19.6691 144.136 19.8036C144.211 19.9381 144.308 20.0413 144.426 20.1132C144.548 20.182 144.677 20.2164 144.811 20.2164C144.949 20.2164 145.077 20.182 145.196 20.1132C145.315 20.0444 145.41 19.9443 145.482 19.813C145.557 19.6785 145.595 19.5221 145.595 19.3438ZM147.372 17.167V20.6387H146.837V17.167H147.372ZM150.443 19.2828C150.443 19.3798 150.437 19.4674 150.424 19.5456H148.449C148.465 19.752 148.541 19.9177 148.679 20.0429C148.817 20.168 148.985 20.2305 149.186 20.2305C149.473 20.2305 149.677 20.1101 149.795 19.8693H150.373C150.294 20.107 150.152 20.3024 149.946 20.4557C149.742 20.6058 149.489 20.6809 149.186 20.6809C148.938 20.6809 148.716 20.6262 148.519 20.5167C148.325 20.4041 148.172 20.2477 148.06 20.0475C147.95 19.8442 147.895 19.6097 147.895 19.3438C147.895 19.078 147.949 18.845 148.055 18.6448C148.164 18.4415 148.316 18.2851 148.51 18.1756C148.707 18.0662 148.932 18.0114 149.186 18.0114C149.43 18.0114 149.647 18.0646 149.838 18.1709C150.028 18.2773 150.177 18.4274 150.283 18.6213C150.39 18.8121 150.443 19.0326 150.443 19.2828ZM149.885 19.1139C149.881 18.9169 149.811 18.7589 149.673 18.6401C149.536 18.5212 149.365 18.4618 149.162 18.4618C148.978 18.4618 148.82 18.5212 148.688 18.6401C148.557 18.7558 148.479 18.9138 148.454 19.1139H149.885ZM151.908 20.6809C151.704 20.6809 151.521 20.6449 151.359 20.573C151.199 20.4979 151.072 20.3978 150.979 20.2727C150.885 20.1445 150.835 20.0022 150.828 19.8458H151.382C151.391 19.9553 151.443 20.0475 151.537 20.1226C151.634 20.1945 151.754 20.2305 151.898 20.2305C152.048 20.2305 152.164 20.2024 152.245 20.1461C152.33 20.0866 152.372 20.0116 152.372 19.9209C152.372 19.8239 152.325 19.752 152.231 19.7051C152.141 19.6582 151.995 19.6065 151.795 19.5502C151.601 19.4971 151.443 19.4455 151.321 19.3954C151.199 19.3454 151.093 19.2688 151.002 19.1655C150.914 19.0623 150.871 18.9263 150.871 18.7574C150.871 18.6198 150.911 18.4947 150.993 18.3821C151.074 18.2663 151.19 18.1756 151.34 18.11C151.493 18.0443 151.668 18.0114 151.865 18.0114C152.159 18.0114 152.395 18.0865 152.574 18.2366C152.755 18.3836 152.852 18.5854 152.865 18.8418H152.33C152.32 18.7261 152.273 18.6338 152.189 18.565C152.105 18.4962 151.99 18.4618 151.847 18.4618C151.706 18.4618 151.598 18.4884 151.523 18.5416C151.448 18.5947 151.41 18.6651 151.41 18.7527C151.41 18.8215 151.435 18.8794 151.485 18.9263C151.535 18.9732 151.596 19.0107 151.668 19.0389C151.74 19.0639 151.847 19.0967 151.987 19.1374C152.175 19.1874 152.328 19.239 152.447 19.2922C152.569 19.3423 152.674 19.4173 152.761 19.5174C152.849 19.6175 152.894 19.7504 152.897 19.9162C152.897 20.0632 152.857 20.1945 152.775 20.3103C152.694 20.426 152.578 20.5167 152.428 20.5824C152.281 20.6481 152.108 20.6809 151.908 20.6809Z" fill="white"/>
<g clip-path="url(#clip0)">
<path d="M15.6387 10.1641C15.6387 8.86858 16.6889 7.81836 17.9844 7.81836H62.5536C63.8491 7.81836 64.8993 8.86859 64.8993 10.1641V17.9833C64.8993 19.2788 63.8491 20.329 62.5536 20.329H17.9844C16.6889 20.329 15.6387 19.2788 15.6387 17.9833V10.1641Z" fill="#FFCC49"/>
<path d="M24.6612 12.1673V16.0846C24.6612 16.5694 24.5127 16.9526 24.2155 17.2341C23.9236 17.5156 23.5379 17.6563 23.0583 17.6563C22.5787 17.6563 22.1904 17.5156 21.8932 17.2341C21.6013 16.9526 21.4554 16.5694 21.4554 16.0846H22.3546C22.3598 16.3244 22.4197 16.5147 22.5344 16.6554C22.6543 16.7962 22.8289 16.8666 23.0583 16.8666C23.2877 16.8666 23.4623 16.7962 23.5822 16.6554C23.7021 16.5095 23.762 16.3192 23.762 16.0846V12.1673H24.6612ZM25.5796 15.4278C25.5796 14.9952 25.6682 14.612 25.8455 14.2784C26.0279 13.9448 26.2729 13.6868 26.5805 13.5043C26.8932 13.3167 27.2373 13.2228 27.6126 13.2228C27.9514 13.2228 28.2459 13.2906 28.4961 13.4261C28.7516 13.5565 28.9549 13.7207 29.106 13.9187V13.2932H30.0052V17.6016H29.106V16.9604C28.9549 17.1637 28.749 17.3331 28.4883 17.4686C28.2277 17.6042 27.9306 17.6719 27.5969 17.6719C27.2268 17.6719 26.888 17.5781 26.5805 17.3904C26.2729 17.1976 26.0279 16.9317 25.8455 16.5929C25.6682 16.2488 25.5796 15.8605 25.5796 15.4278ZM29.106 15.4435C29.106 15.1463 29.0435 14.8883 28.9184 14.6694C28.7985 14.4504 28.6395 14.2836 28.4414 14.169C28.2433 14.0543 28.0296 13.9969 27.8002 13.9969C27.5709 13.9969 27.3572 14.0543 27.1591 14.169C26.961 14.2784 26.7994 14.4426 26.6743 14.6616C26.5544 14.8753 26.4944 15.1307 26.4944 15.4278C26.4944 15.725 26.5544 15.9856 26.6743 16.2098C26.7994 16.4339 26.961 16.6059 27.1591 16.7258C27.3624 16.8405 27.5761 16.8978 27.8002 16.8978C28.0296 16.8978 28.2433 16.8405 28.4414 16.7258C28.6395 16.6111 28.7985 16.4443 28.9184 16.2254C29.0435 16.0012 29.106 15.7406 29.106 15.4435ZM33.1152 13.2228C33.454 13.2228 33.7564 13.2932 34.0222 13.434C34.2933 13.5747 34.5044 13.7832 34.6556 14.0595C34.8067 14.3358 34.8823 14.6694 34.8823 15.0603V17.6016H33.9988V15.1933C33.9988 14.8075 33.9023 14.513 33.7094 14.3097C33.5166 14.1012 33.2533 13.9969 32.9197 13.9969C32.5861 13.9969 32.3202 14.1012 32.1222 14.3097C31.9293 14.513 31.8328 14.8075 31.8328 15.1933V17.6016H30.9415V13.2932H31.8328V13.7858C31.9788 13.6086 32.1639 13.4704 32.388 13.3714C32.6174 13.2724 32.8598 13.2228 33.1152 13.2228ZM40.8888 14.3957V15.1463H37.6752V14.3957H40.8888ZM46.6807 12.1673V16.0846C46.6807 16.5694 46.5321 16.9526 46.235 17.2341C45.9431 17.5156 45.5573 17.6563 45.0778 17.6563C44.5982 17.6563 44.2098 17.5156 43.9127 17.2341C43.6208 16.9526 43.4748 16.5694 43.4748 16.0846H44.374C44.3792 16.3244 44.4392 16.5147 44.5539 16.6554C44.6738 16.7962 44.8484 16.8666 45.0778 16.8666C45.3071 16.8666 45.4817 16.7962 45.6016 16.6554C45.7215 16.5095 45.7815 16.3192 45.7815 16.0846V12.1673H46.6807ZM51.7979 13.2932V17.6016H50.9066V17.0933C50.7658 17.2706 50.5808 17.4113 50.3514 17.5156C50.1273 17.6146 49.8875 17.6641 49.632 17.6641C49.2932 17.6641 48.9883 17.5937 48.7172 17.453C48.4513 17.3123 48.2402 17.1037 48.0838 16.8275C47.9327 16.5512 47.8571 16.2176 47.8571 15.8266V13.2932H48.7407V15.6937C48.7407 16.0794 48.8371 16.3766 49.03 16.5851C49.2228 16.7884 49.4861 16.89 49.8197 16.89C50.1533 16.89 50.4166 16.7884 50.6094 16.5851C50.8075 16.3766 50.9066 16.0794 50.9066 15.6937V13.2932H51.7979ZM54.9132 13.2228C55.252 13.2228 55.5544 13.2932 55.8202 13.434C56.0913 13.5747 56.3024 13.7832 56.4536 14.0595C56.6047 14.3358 56.6803 14.6694 56.6803 15.0603V17.6016H55.7968V15.1933C55.7968 14.8075 55.7003 14.513 55.5075 14.3097C55.3146 14.1012 55.0513 13.9969 54.7177 13.9969C54.3841 13.9969 54.1183 14.1012 53.9202 14.3097C53.7273 14.513 53.6309 14.8075 53.6309 15.1933V17.6016H52.7395V13.2932H53.6309V13.7858C53.7768 13.6086 53.9619 13.4704 54.186 13.3714C54.4154 13.2724 54.6578 13.2228 54.9132 13.2228Z" fill="#484141"/>
</g>
<defs>
<clipPath id="clip0">
<path d="M15.6387 10.1641C15.6387 8.86858 16.6889 7.81836 17.9844 7.81836H62.5536C63.8491 7.81836 64.8993 8.86859 64.8993 10.1641V17.9833C64.8993 19.2788 63.8491 20.329 62.5536 20.329H17.9844C16.6889 20.329 15.6387 19.2788 15.6387 17.9833V10.1641Z" fill="white"/>
</clipPath>
</defs>
</svg>
