<svg width="364" height="178" viewBox="0 0 364 278" fill="none" xmlns="http://www.w3.org/2000/svg">
<g filter="url(#filter0_d)">
<rect x="22" y="18" width="320.145" height="235" rx="4.25725" fill="#FAFAFA"/>
</g>
<path d="M55.6675 224.368V225.054H54.3023V229.496H53.4611V225.054H52.0886V224.368H55.6675ZM57.9879 229.563C57.6042 229.563 57.2574 229.476 56.9474 229.304C56.6375 229.127 56.394 228.881 56.2169 228.566C56.0398 228.247 55.9513 227.878 55.9513 227.459C55.9513 227.046 56.0423 226.68 56.2243 226.36C56.4063 226.04 56.6547 225.794 56.9696 225.622C57.2844 225.45 57.6362 225.364 58.0248 225.364C58.4135 225.364 58.7652 225.45 59.08 225.622C59.3949 225.794 59.6433 226.04 59.8253 226.36C60.0074 226.68 60.0984 227.046 60.0984 227.459C60.0984 227.873 60.0049 228.239 59.818 228.559C59.631 228.879 59.3752 229.127 59.0505 229.304C58.7308 229.476 58.3766 229.563 57.9879 229.563ZM57.9879 228.832C58.2044 228.832 58.4061 228.78 58.593 228.677C58.7849 228.574 58.9398 228.419 59.0579 228.212C59.176 228.005 59.235 227.755 59.235 227.459C59.235 227.164 59.1784 226.916 59.0653 226.714C58.9521 226.508 58.8021 226.353 58.6152 226.249C58.4282 226.146 58.2265 226.094 58.0101 226.094C57.7936 226.094 57.5919 226.146 57.405 226.249C57.2229 226.353 57.0778 226.508 56.9696 226.714C56.8614 226.916 56.8072 227.164 56.8072 227.459C56.8072 227.897 56.9179 228.237 57.1393 228.478C57.3656 228.714 57.6485 228.832 57.9879 228.832ZM60.3544 227.445C60.3544 227.036 60.438 226.675 60.6053 226.36C60.7775 226.045 61.0087 225.802 61.2989 225.629C61.5941 225.452 61.9213 225.364 62.2804 225.364C62.546 225.364 62.8068 225.423 63.0626 225.541C63.3233 225.654 63.5299 225.806 63.6824 225.998V224.035H64.531V229.496H63.6824V228.884C63.5447 229.08 63.3528 229.243 63.1069 229.371C62.8658 229.499 62.5878 229.563 62.273 229.563C61.9188 229.563 61.5941 229.474 61.2989 229.297C61.0087 229.115 60.7775 228.864 60.6053 228.544C60.438 228.219 60.3544 227.853 60.3544 227.445ZM63.6824 227.459C63.6824 227.179 63.6234 226.936 63.5053 226.729C63.3922 226.522 63.2421 226.365 63.0552 226.257C62.8683 226.148 62.6666 226.094 62.4501 226.094C62.2336 226.094 62.0319 226.148 61.845 226.257C61.6581 226.36 61.5056 226.515 61.3875 226.722C61.2743 226.923 61.2178 227.164 61.2178 227.445C61.2178 227.725 61.2743 227.971 61.3875 228.183C61.5056 228.394 61.6581 228.556 61.845 228.67C62.0369 228.778 62.2386 228.832 62.4501 228.832C62.6666 228.832 62.8683 228.778 63.0552 228.67C63.2421 228.561 63.3922 228.404 63.5053 228.197C63.6234 227.986 63.6824 227.74 63.6824 227.459ZM65.0604 227.445C65.0604 227.036 65.144 226.675 65.3113 226.36C65.4835 226.045 65.7147 225.802 66.0049 225.629C66.3001 225.452 66.6248 225.364 66.979 225.364C67.2988 225.364 67.5767 225.428 67.8128 225.556C68.0539 225.679 68.2458 225.834 68.3884 226.02V225.43H69.237V229.496H68.3884V228.891C68.2458 229.083 68.0514 229.243 67.8055 229.371C67.5595 229.499 67.2791 229.563 66.9642 229.563C66.6149 229.563 66.2952 229.474 66.0049 229.297C65.7147 229.115 65.4835 228.864 65.3113 228.544C65.144 228.219 65.0604 227.853 65.0604 227.445ZM68.3884 227.459C68.3884 227.179 68.3294 226.936 68.2113 226.729C68.0982 226.522 67.9481 226.365 67.7612 226.257C67.5742 226.148 67.3725 226.094 67.1561 226.094C66.9396 226.094 66.7379 226.148 66.551 226.257C66.3641 226.36 66.2115 226.515 66.0935 226.722C65.9803 226.923 65.9238 227.164 65.9238 227.445C65.9238 227.725 65.9803 227.971 66.0935 228.183C66.2115 228.394 66.3641 228.556 66.551 228.67C66.7429 228.778 66.9446 228.832 67.1561 228.832C67.3725 228.832 67.5742 228.778 67.7612 228.67C67.9481 228.561 68.0982 228.404 68.2113 228.197C68.3294 227.986 68.3884 227.74 68.3884 227.459ZM73.7069 225.43L71.2127 231.407H70.342L71.1684 229.43L69.5671 225.43H70.5043L71.6481 228.529L72.8361 225.43H73.7069Z" fill="black" fill-opacity="0.5"/>
<path d="M98.9386 225.895C98.9386 226.156 98.8771 226.402 98.7541 226.633C98.6311 226.864 98.4343 227.054 98.1638 227.201C97.8932 227.344 97.5464 227.415 97.1233 227.415H96.1935V229.496H95.3523V224.368H97.1233C97.5168 224.368 97.8489 224.436 98.1195 224.574C98.395 224.707 98.5991 224.889 98.732 225.12C98.8697 225.351 98.9386 225.61 98.9386 225.895ZM97.1233 226.729C97.4431 226.729 97.6816 226.658 97.8391 226.515C97.9965 226.367 98.0752 226.161 98.0752 225.895C98.0752 225.334 97.7579 225.054 97.1233 225.054H96.1935V226.729H97.1233ZM99.1653 227.445C99.1653 227.036 99.2489 226.675 99.4162 226.36C99.5884 226.045 99.8196 225.802 100.11 225.629C100.405 225.452 100.73 225.364 101.084 225.364C101.404 225.364 101.682 225.428 101.918 225.556C102.159 225.679 102.351 225.834 102.493 226.02V225.43H103.342V229.496H102.493V228.891C102.351 229.083 102.156 229.243 101.91 229.371C101.664 229.499 101.384 229.563 101.069 229.563C100.72 229.563 100.4 229.474 100.11 229.297C99.8196 229.115 99.5884 228.864 99.4162 228.544C99.2489 228.219 99.1653 227.853 99.1653 227.445ZM102.493 227.459C102.493 227.179 102.434 226.936 102.316 226.729C102.203 226.522 102.053 226.365 101.866 226.257C101.679 226.148 101.477 226.094 101.261 226.094C101.045 226.094 100.843 226.148 100.656 226.257C100.469 226.36 100.316 226.515 100.198 226.722C100.085 226.923 100.029 227.164 100.029 227.445C100.029 227.725 100.085 227.971 100.198 228.183C100.316 228.394 100.469 228.556 100.656 228.67C100.848 228.778 101.049 228.832 101.261 228.832C101.477 228.832 101.679 228.778 101.866 228.67C102.053 228.561 102.203 228.404 102.316 228.197C102.434 227.986 102.493 227.74 102.493 227.459ZM105.628 229.563C105.308 229.563 105.02 229.506 104.764 229.393C104.513 229.275 104.314 229.117 104.166 228.921C104.019 228.719 103.94 228.495 103.93 228.249H104.801C104.816 228.421 104.897 228.566 105.045 228.684C105.197 228.798 105.387 228.854 105.613 228.854C105.849 228.854 106.031 228.81 106.159 228.721C106.292 228.628 106.358 228.51 106.358 228.367C106.358 228.215 106.284 228.101 106.137 228.028C105.994 227.954 105.765 227.873 105.45 227.784C105.145 227.7 104.897 227.619 104.705 227.541C104.513 227.462 104.346 227.341 104.203 227.179C104.066 227.017 103.997 226.803 103.997 226.537C103.997 226.321 104.061 226.124 104.189 225.947C104.317 225.765 104.499 225.622 104.735 225.519C104.976 225.415 105.251 225.364 105.561 225.364C106.024 225.364 106.395 225.482 106.675 225.718C106.961 225.949 107.113 226.266 107.133 226.67H106.292C106.277 226.488 106.203 226.343 106.07 226.234C105.937 226.126 105.758 226.072 105.532 226.072C105.31 226.072 105.141 226.114 105.022 226.198C104.904 226.281 104.845 226.392 104.845 226.53C104.845 226.638 104.885 226.729 104.963 226.803C105.042 226.876 105.138 226.936 105.251 226.98C105.364 227.019 105.532 227.071 105.753 227.135C106.048 227.213 106.289 227.295 106.476 227.378C106.668 227.457 106.833 227.575 106.971 227.732C107.108 227.89 107.18 228.099 107.185 228.36C107.185 228.591 107.121 228.798 106.993 228.98C106.865 229.162 106.683 229.304 106.447 229.408C106.215 229.511 105.942 229.563 105.628 229.563ZM108.78 226.116V228.367C108.78 228.52 108.814 228.63 108.883 228.699C108.957 228.763 109.08 228.795 109.252 228.795H109.769V229.496H109.104C108.726 229.496 108.435 229.408 108.234 229.23C108.032 229.053 107.931 228.766 107.931 228.367V226.116H107.452V225.43H107.931V224.419H108.78V225.43H109.769V226.116H108.78ZM118.549 224.368L117.029 229.496H116.077L114.999 225.615L113.856 229.496L112.911 229.503L111.457 224.368H112.35L113.413 228.544L114.564 224.368H115.508L116.578 228.522L117.648 224.368H118.549ZM122.674 227.363C122.674 227.516 122.664 227.654 122.644 227.777H119.538C119.562 228.101 119.683 228.362 119.899 228.559C120.116 228.756 120.381 228.854 120.696 228.854C121.149 228.854 121.469 228.665 121.656 228.286H122.563C122.44 228.66 122.216 228.967 121.892 229.208C121.572 229.444 121.173 229.563 120.696 229.563C120.308 229.563 119.958 229.476 119.648 229.304C119.343 229.127 119.102 228.881 118.925 228.566C118.753 228.247 118.667 227.878 118.667 227.459C118.667 227.041 118.751 226.675 118.918 226.36C119.09 226.04 119.329 225.794 119.634 225.622C119.944 225.45 120.298 225.364 120.696 225.364C121.08 225.364 121.422 225.447 121.722 225.615C122.022 225.782 122.256 226.018 122.423 226.323C122.59 226.623 122.674 226.97 122.674 227.363ZM121.796 227.098C121.791 226.788 121.68 226.539 121.464 226.353C121.247 226.166 120.979 226.072 120.659 226.072C120.369 226.072 120.121 226.166 119.914 226.353C119.707 226.535 119.584 226.783 119.545 227.098H121.796ZM126.933 227.363C126.933 227.516 126.923 227.654 126.904 227.777H123.797C123.821 228.101 123.942 228.362 124.158 228.559C124.375 228.756 124.641 228.854 124.955 228.854C125.408 228.854 125.728 228.665 125.915 228.286H126.822C126.699 228.66 126.476 228.967 126.151 229.208C125.831 229.444 125.433 229.563 124.955 229.563C124.567 229.563 124.218 229.476 123.908 229.304C123.603 229.127 123.362 228.881 123.184 228.566C123.012 228.247 122.926 227.878 122.926 227.459C122.926 227.041 123.01 226.675 123.177 226.36C123.349 226.04 123.588 225.794 123.893 225.622C124.203 225.45 124.557 225.364 124.955 225.364C125.339 225.364 125.681 225.447 125.981 225.615C126.281 225.782 126.515 226.018 126.682 226.323C126.849 226.623 126.933 226.97 126.933 227.363ZM126.055 227.098C126.05 226.788 125.939 226.539 125.723 226.353C125.506 226.166 125.238 226.072 124.919 226.072C124.628 226.072 124.38 226.166 124.173 226.353C123.967 226.535 123.844 226.783 123.804 227.098H126.055ZM129.074 227.467L130.949 229.496H129.812L128.307 227.747V229.496H127.466V224.035H128.307V227.209L129.783 225.43H130.949L129.074 227.467Z" fill="black"/>
<path d="M151.161 225.895C151.161 226.156 151.1 226.402 150.977 226.633C150.854 226.864 150.657 227.054 150.386 227.201C150.116 227.344 149.769 227.415 149.346 227.415H148.416V229.496H147.575V224.368H149.346C149.739 224.368 150.072 224.436 150.342 224.574C150.618 224.707 150.822 224.889 150.955 225.12C151.092 225.351 151.161 225.61 151.161 225.895ZM149.346 226.729C149.666 226.729 149.904 226.658 150.062 226.515C150.219 226.367 150.298 226.161 150.298 225.895C150.298 225.334 149.981 225.054 149.346 225.054H148.416V226.729H149.346ZM151.388 227.445C151.388 227.036 151.472 226.675 151.639 226.36C151.811 226.045 152.042 225.802 152.333 225.629C152.628 225.452 152.952 225.364 153.307 225.364C153.626 225.364 153.904 225.428 154.14 225.556C154.381 225.679 154.573 225.834 154.716 226.02V225.43H155.565V229.496H154.716V228.891C154.573 229.083 154.379 229.243 154.133 229.371C153.887 229.499 153.607 229.563 153.292 229.563C152.943 229.563 152.623 229.474 152.333 229.297C152.042 229.115 151.811 228.864 151.639 228.544C151.472 228.219 151.388 227.853 151.388 227.445ZM154.716 227.459C154.716 227.179 154.657 226.936 154.539 226.729C154.426 226.522 154.276 226.365 154.089 226.257C153.902 226.148 153.7 226.094 153.484 226.094C153.267 226.094 153.066 226.148 152.879 226.257C152.692 226.36 152.539 226.515 152.421 226.722C152.308 226.923 152.251 227.164 152.251 227.445C152.251 227.725 152.308 227.971 152.421 228.183C152.539 228.394 152.692 228.556 152.879 228.67C153.07 228.778 153.272 228.832 153.484 228.832C153.7 228.832 153.902 228.778 154.089 228.67C154.276 228.561 154.426 228.404 154.539 228.197C154.657 227.986 154.716 227.74 154.716 227.459ZM157.85 229.563C157.53 229.563 157.243 229.506 156.987 229.393C156.736 229.275 156.537 229.117 156.389 228.921C156.242 228.719 156.163 228.495 156.153 228.249H157.024C157.038 228.421 157.12 228.566 157.267 228.684C157.42 228.798 157.609 228.854 157.835 228.854C158.072 228.854 158.254 228.81 158.382 228.721C158.514 228.628 158.581 228.51 158.581 228.367C158.581 228.215 158.507 228.101 158.359 228.028C158.217 227.954 157.988 227.873 157.673 227.784C157.368 227.7 157.12 227.619 156.928 227.541C156.736 227.462 156.569 227.341 156.426 227.179C156.288 227.017 156.219 226.803 156.219 226.537C156.219 226.321 156.283 226.124 156.411 225.947C156.539 225.765 156.721 225.622 156.957 225.519C157.198 225.415 157.474 225.364 157.784 225.364C158.246 225.364 158.618 225.482 158.898 225.718C159.183 225.949 159.336 226.266 159.356 226.67H158.514C158.5 226.488 158.426 226.343 158.293 226.234C158.16 226.126 157.981 226.072 157.754 226.072C157.533 226.072 157.363 226.114 157.245 226.198C157.127 226.281 157.068 226.392 157.068 226.53C157.068 226.638 157.107 226.729 157.186 226.803C157.265 226.876 157.361 226.936 157.474 226.98C157.587 227.019 157.754 227.071 157.976 227.135C158.271 227.213 158.512 227.295 158.699 227.378C158.891 227.457 159.055 227.575 159.193 227.732C159.331 227.89 159.402 228.099 159.407 228.36C159.407 228.591 159.343 228.798 159.215 228.98C159.087 229.162 158.905 229.304 158.669 229.408C158.438 229.511 158.165 229.563 157.85 229.563ZM161.002 226.116V228.367C161.002 228.52 161.037 228.63 161.106 228.699C161.18 228.763 161.303 228.795 161.475 228.795H161.991V229.496H161.327C160.948 229.496 160.658 229.408 160.456 229.23C160.255 229.053 160.154 228.766 160.154 228.367V226.116H159.674V225.43H160.154V224.419H161.002V225.43H161.991V226.116H161.002ZM169.495 224.368V229.496H168.654V225.984L167.089 229.496H166.506L164.934 225.984V229.496H164.093V224.368H165.001L166.801 228.389L168.594 224.368H169.495ZM172.069 229.563C171.685 229.563 171.338 229.476 171.028 229.304C170.718 229.127 170.475 228.881 170.298 228.566C170.121 228.247 170.032 227.878 170.032 227.459C170.032 227.046 170.123 226.68 170.305 226.36C170.487 226.04 170.736 225.794 171.051 225.622C171.365 225.45 171.717 225.364 172.106 225.364C172.494 225.364 172.846 225.45 173.161 225.622C173.476 225.794 173.724 226.04 173.906 226.36C174.088 226.68 174.179 227.046 174.179 227.459C174.179 227.873 174.086 228.239 173.899 228.559C173.712 228.879 173.456 229.127 173.131 229.304C172.812 229.476 172.458 229.563 172.069 229.563ZM172.069 228.832C172.285 228.832 172.487 228.78 172.674 228.677C172.866 228.574 173.021 228.419 173.139 228.212C173.257 228.005 173.316 227.755 173.316 227.459C173.316 227.164 173.259 226.916 173.146 226.714C173.033 226.508 172.883 226.353 172.696 226.249C172.509 226.146 172.307 226.094 172.091 226.094C171.875 226.094 171.673 226.146 171.486 226.249C171.304 226.353 171.159 226.508 171.051 226.714C170.942 226.916 170.888 227.164 170.888 227.459C170.888 227.897 170.999 228.237 171.22 228.478C171.447 228.714 171.729 228.832 172.069 228.832ZM176.767 225.364C177.087 225.364 177.372 225.43 177.623 225.563C177.879 225.696 178.078 225.893 178.221 226.153C178.364 226.414 178.435 226.729 178.435 227.098V229.496H177.601V227.223C177.601 226.859 177.51 226.581 177.328 226.389C177.146 226.193 176.898 226.094 176.583 226.094C176.268 226.094 176.017 226.193 175.83 226.389C175.648 226.581 175.557 226.859 175.557 227.223V229.496H174.716V225.43H175.557V225.895C175.695 225.728 175.869 225.597 176.081 225.504C176.297 225.41 176.526 225.364 176.767 225.364ZM180.194 226.116V228.367C180.194 228.52 180.229 228.63 180.298 228.699C180.371 228.763 180.494 228.795 180.666 228.795H181.183V229.496H180.519C180.14 229.496 179.85 229.408 179.648 229.23C179.446 229.053 179.346 228.766 179.346 228.367V226.116H178.866V225.43H179.346V224.419H180.194V225.43H181.183V226.116H180.194ZM183.766 225.364C184.076 225.364 184.352 225.43 184.593 225.563C184.839 225.696 185.031 225.893 185.168 226.153C185.311 226.414 185.382 226.729 185.382 227.098V229.496H184.548V227.223C184.548 226.859 184.457 226.581 184.275 226.389C184.093 226.193 183.845 226.094 183.53 226.094C183.215 226.094 182.964 226.193 182.777 226.389C182.595 226.581 182.504 226.859 182.504 227.223V229.496H181.663V224.035H182.504V225.902C182.647 225.73 182.827 225.597 183.043 225.504C183.265 225.41 183.506 225.364 183.766 225.364Z" fill="black" fill-opacity="0.5"/>
<path d="M206.15 225.895C206.15 226.156 206.088 226.402 205.965 226.633C205.842 226.864 205.645 227.054 205.375 227.201C205.104 227.344 204.757 227.415 204.334 227.415H203.404V229.496H202.563V224.368H204.334C204.728 224.368 205.06 224.436 205.33 224.574C205.606 224.707 205.81 224.889 205.943 225.12C206.081 225.351 206.15 225.61 206.15 225.895ZM204.334 226.729C204.654 226.729 204.893 226.658 205.05 226.515C205.207 226.367 205.286 226.161 205.286 225.895C205.286 225.334 204.969 225.054 204.334 225.054H203.404V226.729H204.334ZM206.376 227.445C206.376 227.036 206.46 226.675 206.627 226.36C206.799 226.045 207.031 225.802 207.321 225.629C207.616 225.452 207.941 225.364 208.295 225.364C208.615 225.364 208.893 225.428 209.129 225.556C209.37 225.679 209.562 225.834 209.704 226.02V225.43H210.553V229.496H209.704V228.891C209.562 229.083 209.367 229.243 209.121 229.371C208.875 229.499 208.595 229.563 208.28 229.563C207.931 229.563 207.611 229.474 207.321 229.297C207.031 229.115 206.799 228.864 206.627 228.544C206.46 228.219 206.376 227.853 206.376 227.445ZM209.704 227.459C209.704 227.179 209.645 226.936 209.527 226.729C209.414 226.522 209.264 226.365 209.077 226.257C208.89 226.148 208.688 226.094 208.472 226.094C208.255 226.094 208.054 226.148 207.867 226.257C207.68 226.36 207.527 226.515 207.409 226.722C207.296 226.923 207.24 227.164 207.24 227.445C207.24 227.725 207.296 227.971 207.409 228.183C207.527 228.394 207.68 228.556 207.867 228.67C208.059 228.778 208.26 228.832 208.472 228.832C208.688 228.832 208.89 228.778 209.077 228.67C209.264 228.561 209.414 228.404 209.527 228.197C209.645 227.986 209.704 227.74 209.704 227.459ZM212.838 229.563C212.519 229.563 212.231 229.506 211.975 229.393C211.724 229.275 211.525 229.117 211.377 228.921C211.23 228.719 211.151 228.495 211.141 228.249H212.012C212.027 228.421 212.108 228.566 212.256 228.684C212.408 228.798 212.597 228.854 212.824 228.854C213.06 228.854 213.242 228.81 213.37 228.721C213.503 228.628 213.569 228.51 213.569 228.367C213.569 228.215 213.495 228.101 213.348 228.028C213.205 227.954 212.976 227.873 212.661 227.784C212.356 227.7 212.108 227.619 211.916 227.541C211.724 227.462 211.557 227.341 211.414 227.179C211.277 227.017 211.208 226.803 211.208 226.537C211.208 226.321 211.272 226.124 211.4 225.947C211.527 225.765 211.709 225.622 211.946 225.519C212.187 225.415 212.462 225.364 212.772 225.364C213.235 225.364 213.606 225.482 213.886 225.718C214.172 225.949 214.324 226.266 214.344 226.67H213.503C213.488 226.488 213.414 226.343 213.281 226.234C213.148 226.126 212.969 226.072 212.743 226.072C212.521 226.072 212.351 226.114 212.233 226.198C212.115 226.281 212.056 226.392 212.056 226.53C212.056 226.638 212.096 226.729 212.174 226.803C212.253 226.876 212.349 226.936 212.462 226.98C212.575 227.019 212.743 227.071 212.964 227.135C213.259 227.213 213.5 227.295 213.687 227.378C213.879 227.457 214.044 227.575 214.182 227.732C214.319 227.89 214.391 228.099 214.396 228.36C214.396 228.591 214.332 228.798 214.204 228.98C214.076 229.162 213.894 229.304 213.658 229.408C213.426 229.511 213.153 229.563 212.838 229.563ZM215.991 226.116V228.367C215.991 228.52 216.025 228.63 216.094 228.699C216.168 228.763 216.291 228.795 216.463 228.795H216.98V229.496H216.315C215.937 229.496 215.646 229.408 215.445 229.23C215.243 229.053 215.142 228.766 215.142 228.367V226.116H214.662V225.43H215.142V224.419H215.991V225.43H216.98V226.116H215.991ZM222.882 224.368L221.185 227.637V229.496H220.343V227.637L218.639 224.368H219.576L220.764 226.884L221.952 224.368H222.882ZM226.981 227.363C226.981 227.516 226.971 227.654 226.951 227.777H223.844C223.869 228.101 223.99 228.362 224.206 228.559C224.423 228.756 224.688 228.854 225.003 228.854C225.456 228.854 225.775 228.665 225.962 228.286H226.87C226.747 228.66 226.523 228.967 226.198 229.208C225.879 229.444 225.48 229.563 225.003 229.563C224.614 229.563 224.265 229.476 223.955 229.304C223.65 229.127 223.409 228.881 223.232 228.566C223.06 228.247 222.974 227.878 222.974 227.459C222.974 227.041 223.057 226.675 223.225 226.36C223.397 226.04 223.635 225.794 223.94 225.622C224.25 225.45 224.605 225.364 225.003 225.364C225.387 225.364 225.729 225.447 226.029 225.615C226.329 225.782 226.563 226.018 226.73 226.323C226.897 226.623 226.981 226.97 226.981 227.363ZM226.103 227.098C226.098 226.788 225.987 226.539 225.77 226.353C225.554 226.166 225.286 226.072 224.966 226.072C224.676 226.072 224.427 226.166 224.221 226.353C224.014 226.535 223.891 226.783 223.852 227.098H226.103ZM227.233 227.445C227.233 227.036 227.317 226.675 227.484 226.36C227.656 226.045 227.887 225.802 228.177 225.629C228.473 225.452 228.797 225.364 229.152 225.364C229.471 225.364 229.749 225.428 229.985 225.556C230.226 225.679 230.418 225.834 230.561 226.02V225.43H231.41V229.496H230.561V228.891C230.418 229.083 230.224 229.243 229.978 229.371C229.732 229.499 229.452 229.563 229.137 229.563C228.788 229.563 228.468 229.474 228.177 229.297C227.887 229.115 227.656 228.864 227.484 228.544C227.317 228.219 227.233 227.853 227.233 227.445ZM230.561 227.459C230.561 227.179 230.502 226.936 230.384 226.729C230.271 226.522 230.121 226.365 229.934 226.257C229.747 226.148 229.545 226.094 229.329 226.094C229.112 226.094 228.91 226.148 228.724 226.257C228.537 226.36 228.384 226.515 228.266 226.722C228.153 226.923 228.096 227.164 228.096 227.445C228.096 227.725 228.153 227.971 228.266 228.183C228.384 228.394 228.537 228.556 228.724 228.67C228.915 228.778 229.117 228.832 229.329 228.832C229.545 228.832 229.747 228.778 229.934 228.67C230.121 228.561 230.271 228.404 230.384 228.197C230.502 227.986 230.561 227.74 230.561 227.459ZM233.061 226.02C233.184 225.814 233.346 225.654 233.548 225.541C233.754 225.423 233.998 225.364 234.278 225.364V226.234H234.064C233.735 226.234 233.484 226.318 233.311 226.485C233.144 226.653 233.061 226.943 233.061 227.356V229.496H232.219V225.43H233.061V226.02Z" fill="black" fill-opacity="0.5"/>
<path d="M254.188 228.448H252.041L251.672 229.496H250.794L252.631 224.36H253.605L255.443 229.496H254.557L254.188 228.448ZM253.952 227.762L253.118 225.378L252.277 227.762H253.952ZM256.788 224.035V229.496H255.947V224.035H256.788ZM258.438 224.035V229.496H257.597V224.035H258.438ZM264.183 224.368V225.054H262.817V229.496H261.976V225.054H260.604V224.368H264.183ZM265.167 224.891C265.015 224.891 264.887 224.84 264.784 224.736C264.68 224.633 264.629 224.505 264.629 224.353C264.629 224.2 264.68 224.072 264.784 223.969C264.887 223.866 265.015 223.814 265.167 223.814C265.315 223.814 265.44 223.866 265.544 223.969C265.647 224.072 265.699 224.2 265.699 224.353C265.699 224.505 265.647 224.633 265.544 224.736C265.44 224.84 265.315 224.891 265.167 224.891ZM265.581 225.43V229.496H264.739V225.43H265.581ZM271.312 225.364C271.632 225.364 271.917 225.43 272.168 225.563C272.424 225.696 272.623 225.893 272.766 226.153C272.913 226.414 272.987 226.729 272.987 227.098V229.496H272.153V227.223C272.153 226.859 272.062 226.581 271.88 226.389C271.698 226.193 271.45 226.094 271.135 226.094C270.82 226.094 270.569 226.193 270.382 226.389C270.2 226.581 270.109 226.859 270.109 227.223V229.496H269.275V227.223C269.275 226.859 269.184 226.581 269.002 226.389C268.82 226.193 268.572 226.094 268.257 226.094C267.942 226.094 267.691 226.193 267.504 226.389C267.322 226.581 267.231 226.859 267.231 227.223V229.496H266.39V225.43H267.231V225.895C267.369 225.728 267.543 225.597 267.755 225.504C267.967 225.41 268.193 225.364 268.434 225.364C268.759 225.364 269.049 225.433 269.305 225.57C269.56 225.708 269.757 225.907 269.895 226.168C270.018 225.922 270.21 225.728 270.471 225.585C270.731 225.438 271.012 225.364 271.312 225.364ZM277.489 227.363C277.489 227.516 277.479 227.654 277.459 227.777H274.353C274.377 228.101 274.498 228.362 274.714 228.559C274.931 228.756 275.196 228.854 275.511 228.854C275.964 228.854 276.283 228.665 276.47 228.286H277.378C277.255 228.66 277.031 228.967 276.706 229.208C276.387 229.444 275.988 229.563 275.511 229.563C275.122 229.563 274.773 229.476 274.463 229.304C274.158 229.127 273.917 228.881 273.74 228.566C273.568 228.247 273.482 227.878 273.482 227.459C273.482 227.041 273.565 226.675 273.733 226.36C273.905 226.04 274.143 225.794 274.448 225.622C274.758 225.45 275.113 225.364 275.511 225.364C275.895 225.364 276.237 225.447 276.537 225.615C276.837 225.782 277.071 226.018 277.238 226.323C277.405 226.623 277.489 226.97 277.489 227.363ZM276.611 227.098C276.606 226.788 276.495 226.539 276.278 226.353C276.062 226.166 275.794 226.072 275.474 226.072C275.184 226.072 274.935 226.166 274.729 226.353C274.522 226.535 274.399 226.783 274.36 227.098H276.611Z" fill="black" fill-opacity="0.5"/>
<path d="M72.0046 76.5812H70.6493V70.3616H67.0655V76.5812H63.831L59.5655 70.3616H56.4058V76.5812H55.0421V78.2442H56.4058V80.1733H55.0421V81.8362H56.4058V87.3906H60.0062V81.8362H63.698L67.5395 87.3906H70.6493V81.8362H72.0046V80.1733H70.6493V78.2442H72.0046V76.5812ZM61.2201 78.2442L62.5505 80.1733H60.0062V78.2442H61.2201ZM67.0655 78.2442V80.1733H66.3006L64.9785 78.2442H67.0655ZM73.5117 84.3972H81.6853V87.3906H85.1277V84.3972H87.2396V81.512H85.1277V70.3616H80.621L73.5117 81.5619V84.3972ZM81.7518 81.512H77.137V81.3789L81.6187 74.2863H81.7518V81.512ZM90.312 87.3906H94.0288L101.096 73.3467V70.3616H89.1479V73.3051H97.3714V73.4215L90.312 87.3906ZM104.52 85.0624H101.593L101.552 85.9937C101.452 88.2554 100.803 90.5752 100.562 91.5481H102.857C103.256 90.542 104.204 88.1805 104.429 85.9771L104.52 85.0624ZM113.808 87.6234C117.6 87.6234 120.177 85.1539 120.169 81.7115C120.177 78.4521 117.899 76.1073 114.831 76.1073C113.334 76.1073 112.045 76.7309 111.446 77.5707H111.347L111.787 73.3051H119.229V70.3616H108.819L108.012 79.3418L111.214 79.9155C111.738 79.2087 112.752 78.768 113.758 78.768C115.471 78.7764 116.702 80.0153 116.702 81.803C116.702 83.5741 115.496 84.7964 113.808 84.7964C112.378 84.7964 111.222 83.8984 111.139 82.5763H107.647C107.713 85.5198 110.282 87.6234 113.808 87.6234ZM129.357 87.7648C133.639 87.7648 136.225 84.5053 136.233 78.8928C136.242 73.3218 133.622 70.1288 129.357 70.1288C125.083 70.1288 122.489 73.3134 122.48 78.8928C122.464 84.4887 125.066 87.7565 129.357 87.7648ZM129.357 84.7797C127.403 84.7797 126.139 82.8174 126.147 78.8928C126.156 75.0263 127.411 73.0806 129.357 73.0806C131.294 73.0806 132.558 75.0263 132.558 78.8928C132.566 82.8174 131.303 84.7797 129.357 84.7797ZM145.477 87.7648C149.76 87.7648 152.346 84.5053 152.354 78.8928C152.362 73.3218 149.743 70.1288 145.477 70.1288C141.204 70.1288 138.609 73.3134 138.601 78.8928C138.584 84.4887 141.187 87.7565 145.477 87.7648ZM145.477 84.7797C143.523 84.7797 142.26 82.8174 142.268 78.8928C142.276 75.0263 143.532 73.0806 145.477 73.0806C147.415 73.0806 148.679 75.0263 148.679 78.8928C148.687 82.8174 147.423 84.7797 145.477 84.7797Z" fill="black"/>
<path d="M56.2145 55.8398H64.0223V54.4679H57.7611V50.1275H63.5234V48.7555H57.7611V44.4401H63.9225V43.0681H56.2145V55.8398ZM67.3081 46.261H65.6118L68.6551 51.0504L65.6118 55.8398H67.3081L69.603 52.1231L71.8979 55.8398H73.5942L70.501 51.0504L73.5942 46.261H71.8979L69.603 50.1774L67.3081 46.261ZM75.3942 59.4319H76.866V54.3681H76.9907C77.315 54.8919 77.9386 56.0394 79.7845 56.0394C82.1792 56.0394 83.8505 54.1187 83.8505 51.0754C83.8505 48.0571 82.1792 46.1363 79.7595 46.1363C77.8887 46.1363 77.315 47.2838 76.9907 47.7827H76.8161V46.261H75.3942V59.4319ZM76.841 51.0504C76.841 48.9052 77.7889 47.4584 79.5849 47.4584C81.4558 47.4584 82.3788 49.0299 82.3788 51.0504C82.3788 53.0959 81.4309 54.7173 79.5849 54.7173C77.8139 54.7173 76.841 53.2206 76.841 51.0504ZM89.8116 56.0394C91.7573 56.0394 93.1792 55.0666 93.6282 53.6198L92.2063 53.2206C91.8322 54.2184 90.9653 54.7173 89.8116 54.7173C88.0842 54.7173 86.8931 53.601 86.8245 51.5493H93.7779V50.9257C93.7779 47.3586 91.6576 46.1363 89.662 46.1363C87.0677 46.1363 85.3465 48.1818 85.3465 51.1253C85.3465 54.0688 87.0428 56.0394 89.8116 56.0394ZM86.8245 50.2772C86.9243 48.7867 87.9782 47.4584 89.662 47.4584C91.2584 47.4584 92.2812 48.6557 92.2812 50.2772H86.8245ZM97.1884 50.0776C97.1884 48.4063 98.2236 47.4584 99.633 47.4584C100.999 47.4584 101.828 48.3502 101.828 49.8531V55.8398H103.3V49.7533C103.3 47.3087 101.997 46.1363 100.057 46.1363C98.6103 46.1363 97.7122 46.7849 97.2632 47.7577H97.1385V46.261H95.7167V55.8398H97.1884V50.0776ZM112.474 48.4063C112.013 47.0468 110.978 46.1363 109.082 46.1363C107.061 46.1363 105.565 47.2838 105.565 48.9052C105.565 50.2273 106.35 51.1128 108.109 51.5244L109.705 51.8986C110.672 52.1231 111.127 52.5845 111.127 53.2456C111.127 54.0688 110.254 54.7423 108.882 54.7423C107.679 54.7423 106.924 54.2247 106.662 53.1957L105.265 53.5449C105.608 55.1726 106.949 56.0394 108.907 56.0394C111.133 56.0394 112.649 54.8233 112.649 53.1707C112.649 51.8362 111.813 50.9943 110.104 50.5765L108.683 50.2273C107.548 49.9466 107.036 49.5662 107.036 48.8304C107.036 48.0072 107.909 47.4085 109.082 47.4085C110.366 47.4085 110.896 48.1194 111.152 48.7805L112.474 48.4063ZM118.58 56.0394C120.526 56.0394 121.948 55.0666 122.397 53.6198L120.975 53.2206C120.601 54.2184 119.734 54.7173 118.58 54.7173C116.853 54.7173 115.662 53.601 115.593 51.5493H122.547V50.9257C122.547 47.3586 120.426 46.1363 118.431 46.1363C115.836 46.1363 114.115 48.1818 114.115 51.1253C114.115 54.0688 115.811 56.0394 118.58 56.0394ZM115.593 50.2772C115.693 48.7867 116.747 47.4584 118.431 47.4584C120.027 47.4584 121.05 48.6557 121.05 50.2772H115.593ZM131.27 48.4063C130.809 47.0468 129.774 46.1363 127.878 46.1363C125.857 46.1363 124.361 47.2838 124.361 48.9052C124.361 50.2273 125.146 51.1128 126.905 51.5244L128.501 51.8986C129.468 52.1231 129.923 52.5845 129.923 53.2456C129.923 54.0688 129.05 54.7423 127.678 54.7423C126.475 54.7423 125.72 54.2247 125.458 53.1957L124.061 53.5449C124.404 55.1726 125.745 56.0394 127.703 56.0394C129.93 56.0394 131.445 54.8233 131.445 53.1707C131.445 51.8362 130.609 50.9943 128.901 50.5765L127.479 50.2273C126.344 49.9466 125.832 49.5662 125.832 48.8304C125.832 48.0072 126.705 47.4085 127.878 47.4085C129.163 47.4085 129.693 48.1194 129.948 48.7805L131.27 48.4063Z" fill="#212121"/>
<line x1="56.4843" y1="115.066" x2="56.4843" y2="197.657" stroke="#212121" stroke-width="0.851449"/>
<line x1="56.9102" y1="197.231" x2="297.019" y2="197.231" stroke="#212121" stroke-width="0.851449"/>
<path opacity="0.4" d="M42.1644 184.12H41.8125V182.763H41.2574V184.12H40.2723L39.3325 182.763H38.8137V184.12H38.4635V184.483H38.8137V184.904H38.4635V185.267H38.8137V186.479H39.3742V185.267H40.4573L41.2973 186.479H41.8125V185.267H42.1644V184.904H41.8125V184.483H42.1644V184.12ZM39.9149 184.483L40.2051 184.904H39.3742V184.483H39.9149ZM41.2574 184.483V184.904H40.8165L40.5244 184.483H41.2574ZM39.3742 184.12V183.754H39.4087L39.6627 184.12H39.3742ZM41.0669 185.267H41.2574V185.492H41.2229L41.0669 185.267ZM45.3887 182.763H44.8426L43.9156 183.369V183.906L44.8045 183.325H44.8263V186.479H45.3887V182.763ZM47.6872 186.54C48.5453 186.54 49.0478 185.84 49.0478 184.623C49.0478 183.414 48.5381 182.712 47.6872 182.712C46.8346 182.712 46.3266 183.413 46.3248 184.623C46.3248 185.838 46.8273 186.538 47.6872 186.54ZM47.6872 186.056C47.1847 186.056 46.8817 185.551 46.8817 184.623C46.8835 183.697 47.1865 183.188 47.6872 183.188C48.1861 183.188 48.4909 183.697 48.4909 184.623C48.4909 185.551 48.1879 186.056 47.6872 186.056ZM49.6987 186.479H50.2411V185.49L50.5114 185.219L51.4584 186.479H52.1242L50.9196 184.887L52.048 183.692H51.3985L50.2883 184.871H50.2411V182.763H49.6987V186.479Z" fill="#212121"/>
<path opacity="0.4" d="M41.5945 168.796H41.2425V167.439H40.6874V168.796H39.7023L38.7625 167.439H38.2437V168.796H37.8936V169.159H38.2437V169.58H37.8936V169.942H38.2437V171.154H38.8043V169.942H39.8873L40.7273 171.154H41.2425V169.942H41.5945V169.58H41.2425V169.159H41.5945V168.796ZM39.3449 169.159L39.6352 169.58H38.8043V169.159H39.3449ZM40.6874 169.159V169.58H40.2465L39.9545 169.159H40.6874ZM38.8043 168.796V168.429H38.8387L39.0927 168.796H38.8043ZM40.4969 169.942H40.6874V170.167H40.6529L40.4969 169.942ZM43.4091 171.154H45.8546V170.674H44.1819V170.646L44.9203 169.873C45.6006 169.186 45.7947 168.858 45.7947 168.442C45.7947 167.845 45.3085 167.388 44.6083 167.388C43.9134 167.388 43.4055 167.838 43.4055 168.516H43.9406C43.9388 168.117 44.1964 167.856 44.5974 167.856C44.9747 167.856 45.2614 168.088 45.2614 168.458C45.2614 168.787 45.0654 169.023 44.6663 169.445L43.4091 170.748V171.154ZM47.8357 171.216C48.6938 171.216 49.1963 170.516 49.1963 169.298C49.1963 168.09 48.6865 167.388 47.8357 167.388C46.983 167.388 46.475 168.088 46.4732 169.298C46.4732 170.514 46.9757 171.214 47.8357 171.216ZM47.8357 170.732C47.3331 170.732 47.0302 170.227 47.0302 169.298C47.032 168.373 47.3349 167.863 47.8357 167.863C48.3346 167.863 48.6393 168.373 48.6393 169.298C48.6393 170.227 48.3364 170.732 47.8357 170.732ZM49.8471 171.154H50.3895V170.166L50.6599 169.895L51.6069 171.154H52.2727L51.068 169.563L52.1965 168.368H51.547L50.4367 169.547H50.3895V167.439H49.8471V171.154Z" fill="#212121"/>
<path opacity="0.4" d="M41.4348 153.47H41.0829V152.113H40.5277V153.47H39.5426L38.6029 152.113H38.0841V153.47H37.7339V153.833H38.0841V154.253H37.7339V154.616H38.0841V155.828H38.6446V154.616H39.7277L40.5676 155.828H41.0829V154.616H41.4348V154.253H41.0829V153.833H41.4348V153.47ZM39.1853 153.833L39.4755 154.253H38.6446V153.833H39.1853ZM40.5277 153.833V154.253H40.0869L39.7948 153.833H40.5277ZM38.6446 153.47V153.103H38.6791L38.9331 153.47H38.6446ZM40.3372 154.616H40.5277V154.841H40.4933L40.3372 154.616ZM44.5429 155.879C45.3013 155.879 45.8582 155.425 45.8564 154.809C45.8582 154.339 45.5734 154.001 45.0799 153.925V153.896C45.4682 153.796 45.7203 153.491 45.7185 153.074C45.7203 152.528 45.2722 152.062 44.5575 152.062C43.8753 152.062 43.3274 152.474 43.3093 153.078H43.8517C43.8644 152.737 44.1855 152.53 44.5502 152.53C44.9294 152.53 45.1779 152.76 45.1761 153.103C45.1779 153.462 44.8894 153.698 44.4776 153.698H44.1638V154.155H44.4776C44.9929 154.155 45.2904 154.417 45.2904 154.79C45.2904 155.151 44.9765 155.396 44.5393 155.396C44.1366 155.396 43.8227 155.19 43.8009 154.859H43.2313C43.2549 155.465 43.7919 155.879 44.5429 155.879ZM47.8357 155.89C48.6938 155.89 49.1963 155.19 49.1963 153.972C49.1963 152.764 48.6865 152.062 47.8357 152.062C46.983 152.062 46.475 152.762 46.4732 153.972C46.4732 155.188 46.9757 155.888 47.8357 155.89ZM47.8357 155.405C47.3331 155.405 47.0302 154.901 47.0302 153.972C47.032 153.047 47.3349 152.537 47.8357 152.537C48.3346 152.537 48.6393 153.047 48.6393 153.972C48.6393 154.901 48.3364 155.405 47.8357 155.405ZM49.8471 155.828H50.3895V154.839L50.6599 154.569L51.6069 155.828H52.2727L51.068 154.237L52.1965 153.042H51.547L50.4367 154.221H50.3895V152.113H49.8471V155.828Z" fill="#212121"/>
<path opacity="0.4" d="M41.3849 138.144H41.033V136.787H40.4778V138.144H39.4928L38.553 136.787H38.0342V138.144H37.684V138.506H38.0342V138.927H37.684V139.29H38.0342V140.502H38.5947V139.29H39.6778L40.5178 140.502H41.033V139.29H41.3849V138.927H41.033V138.506H41.3849V138.144ZM39.1354 138.506L39.4256 138.927H38.5947V138.506H39.1354ZM40.4778 138.506V138.927H40.037L39.7449 138.506H40.4778ZM38.5947 138.144V137.777H38.6292L38.8832 138.144H38.5947ZM40.2874 139.29H40.4778V139.515H40.4434L40.2874 139.29ZM43.1215 139.776H44.8831V140.502H45.4183V139.776H45.9099V139.301H45.4183V136.787H44.7271L43.1215 139.323V139.776ZM44.8867 139.301H43.7093V139.272L44.8577 137.454H44.8867V139.301ZM47.8357 140.564C48.6938 140.564 49.1963 139.863 49.1963 138.646C49.1963 137.438 48.6865 136.736 47.8357 136.736C46.983 136.736 46.475 137.436 46.4732 138.646C46.4732 139.862 46.9757 140.562 47.8357 140.564ZM47.8357 140.079C47.3331 140.079 47.0302 139.575 47.0302 138.646C47.032 137.721 47.3349 137.211 47.8357 137.211C48.3346 137.211 48.6393 137.721 48.6393 138.646C48.6393 139.575 48.3364 140.079 47.8357 140.079ZM49.8471 140.502H50.3895V139.513L50.6599 139.243L51.6069 140.502H52.2727L51.068 138.911L52.1965 137.715H51.547L50.4367 138.895H50.3895V136.787H49.8471V140.502Z" fill="#212121"/>
<path opacity="0.4" d="M41.5595 122.817H41.2076V121.46H40.6525V122.817H39.6674L38.7276 121.46H38.2088V122.817H37.8586V123.18H38.2088V123.601H37.8586V123.964H38.2088V125.176H38.7694V123.964H39.8524L40.6924 125.176H41.2076V123.964H41.5595V123.601H41.2076V123.18H41.5595V122.817ZM39.31 123.18L39.6002 123.601H38.7694V123.18H39.31ZM40.6525 123.18V123.601H40.2116L39.9195 123.18H40.6525ZM38.7694 122.817V122.451H38.8038L39.0578 122.817H38.7694ZM40.462 123.964H40.6525V124.189H40.618L40.462 123.964ZM44.6005 125.227C45.348 125.227 45.8813 124.699 45.8795 123.975C45.8813 123.256 45.3806 122.734 44.7039 122.734C44.4282 122.734 44.1724 122.839 44.0273 122.981H44.0055L44.1234 121.941H45.6999V121.46H43.6572L43.4485 123.333L43.962 123.409C44.1016 123.284 44.352 123.198 44.577 123.198C45.0178 123.202 45.3371 123.532 45.3371 123.986C45.3371 124.432 45.0269 124.755 44.6005 124.755C44.2413 124.755 43.9565 124.526 43.9275 124.207H43.3832C43.405 124.798 43.9184 125.227 44.6005 125.227ZM47.8357 125.237C48.6938 125.237 49.1963 124.537 49.1963 123.32C49.1963 122.112 48.6865 121.41 47.8357 121.41C46.983 121.41 46.475 122.11 46.4732 123.32C46.4732 124.535 46.9757 125.236 47.8357 125.237ZM47.8357 124.753C47.3331 124.753 47.0302 124.249 47.0302 123.32C47.032 122.395 47.3349 121.885 47.8357 121.885C48.3345 121.885 48.6393 122.395 48.6393 123.32C48.6393 124.249 48.3364 124.753 47.8357 124.753ZM49.8471 125.176H50.3895V124.187L50.6599 123.917L51.6069 125.176H52.2727L51.068 123.585L52.1965 122.389H51.547L50.4367 123.568H50.3895V121.46H49.8471V125.176Z" fill="#212121"/>
<rect x="65.8691" y="124.43" width="21.4674" height="65.3272" rx="8.51449" fill="#FFCC49"/>
<rect x="99.4707" y="137.201" width="21.0606" height="52.7896" rx="8.51449" fill="#2ABC4A"/>
<rect x="132.664" y="131.242" width="21.4674" height="58.3986" rx="8.51449" fill="#FFCC49"/>
<rect x="166.266" y="110.807" width="21.0606" height="79.1845" rx="8.51449" fill="#FFCC49"/>
<rect x="199.461" y="124.43" width="21.4674" height="65.3272" rx="8.51449" fill="#2ABC4A"/>
<rect x="233.061" y="110.807" width="21.0606" height="79.1845" rx="8.51449" fill="#FFCC49"/>
<rect x="266.256" y="152.527" width="21.4674" height="37.6126" rx="8.51449" fill="#2ABC4A"/>
<defs>
<filter id="filter0_d" x="0.713768" y="0.119565" width="362.717" height="277.572" filterUnits="userSpaceOnUse" color-interpolation-filters="sRGB">
<feFlood flood-opacity="0" result="BackgroundImageFix"/>
<feColorMatrix in="SourceAlpha" type="matrix" values="0 0 0 0 0 0 0 0 0 0 0 0 0 0 0 0 0 0 127 0"/>
<feOffset dy="3.4058"/>
<feGaussianBlur stdDeviation="10.6431"/>
<feColorMatrix type="matrix" values="0 0 0 0 0.195833 0 0 0 0 0.195833 0 0 0 0 0.195833 0 0 0 0.1 0"/>
<feBlend mode="normal" in2="BackgroundImageFix" result="effect1_dropShadow"/>
<feBlend mode="normal" in="SourceGraphic" in2="effect1_dropShadow" result="shape"/>
</filter>
</defs>
</svg>
