<svg width="48" height="48" viewBox="0 0 48 48" fill="none" xmlns="http://www.w3.org/2000/svg">
<circle cx="24" cy="24" r="24" fill="#FFCC49"/>
<path d="M12.1719 35.2188H34.8281C34.9317 35.2188 35.0311 35.1776 35.1043 35.1043C35.1776 35.0311 35.2188 34.9317 35.2188 34.8281V33.2656C35.2188 33.162 35.1776 33.0627 35.1043 32.9894C35.0311 32.9162 34.9317 32.875 34.8281 32.875H34.4375V32.0938H34.8281C34.9317 32.0938 35.0311 32.0526 35.1043 31.9793C35.1776 31.9061 35.2188 31.8067 35.2188 31.7031V30.1406C35.2188 30.037 35.1776 29.9377 35.1043 29.8644C35.0311 29.7912 34.9317 29.75 34.8281 29.75H33.6562V28.5781C33.6562 28.4745 33.6151 28.3752 33.5418 28.3019C33.4686 28.2287 33.3692 28.1875 33.2656 28.1875H32.5949C33.1773 27.6757 33.5485 26.9656 33.6363 26.1953C33.7241 25.425 33.5222 24.6496 33.0699 24.0199C32.6176 23.3902 31.9472 22.9512 31.1892 22.7885C30.4312 22.6257 29.6397 22.7507 28.9688 23.1392V17.25C28.9688 17.1987 28.9587 17.1479 28.939 17.1005C28.9194 17.0531 28.8906 17.0101 28.8543 16.9738L23.7762 11.8957C23.7399 11.8594 23.6969 11.8306 23.6495 11.811C23.6021 11.7914 23.5513 11.7812 23.5 11.7813H12.1719C12.0683 11.7813 11.9689 11.8224 11.8957 11.8957C11.8224 11.9689 11.7812 12.0683 11.7812 12.1719V34.8281C11.7812 34.9317 11.8224 35.0311 11.8957 35.1043C11.9689 35.1776 12.0683 35.2188 12.1719 35.2188ZM21.9375 32.875V32.0938H27.4062V32.875H21.9375ZM22.7188 31.3125V30.5312H28.1875V31.3125H22.7188ZM28.1875 34.4375H22.7188V33.6562H28.1875V34.4375ZM28.1875 32.875V32.0938H33.6562V32.875H28.1875ZM34.4375 34.4375H28.9688V33.6562H34.4375V34.4375ZM34.4375 30.5312V31.3125H28.9688V30.5312H34.4375ZM32.875 28.9688V29.75H27.4062V28.9688H32.875ZM30.5312 23.5C30.9948 23.5 31.4479 23.6375 31.8334 23.895C32.2188 24.1525 32.5192 24.5186 32.6966 24.9468C32.874 25.3751 32.9204 25.8464 32.83 26.301C32.7395 26.7556 32.5163 27.1733 32.1885 27.501C31.8608 27.8288 31.4431 28.052 30.9885 28.1425C30.5338 28.2329 30.0626 28.1865 29.6343 28.0091C29.2061 27.8317 28.84 27.5313 28.5825 27.1459C28.325 26.7604 28.1875 26.3073 28.1875 25.8438C28.1882 25.2224 28.4354 24.6266 28.8748 24.1873C29.3141 23.7479 29.9099 23.5007 30.5312 23.5ZM23.8906 13.1149L27.6351 16.8594H23.8906V13.1149ZM12.5625 12.5625H23.1094V17.25C23.1094 17.3536 23.1505 17.453 23.2238 17.5262C23.297 17.5995 23.3964 17.6406 23.5 17.6406H28.1875V23.7801C27.9158 24.0875 27.7075 24.4456 27.5746 24.8338C27.4416 25.2219 27.3865 25.6325 27.4125 26.0419C27.4385 26.4514 27.5451 26.8517 27.7262 27.2199C27.9072 27.5881 28.1592 27.9169 28.4676 28.1875H27.0156C26.912 28.1875 26.8127 28.2287 26.7394 28.3019C26.6662 28.3752 26.625 28.4745 26.625 28.5781V29.75H22.3281C22.2245 29.75 22.1252 29.7912 22.0519 29.8644C21.9787 29.9377 21.9375 30.037 21.9375 30.1406V31.3125H21.5469C21.4433 31.3125 21.3439 31.3537 21.2707 31.4269C21.1974 31.5002 21.1562 31.5995 21.1562 31.7031V33.2656C21.1562 33.3692 21.1974 33.4686 21.2707 33.5418C21.3439 33.6151 21.4433 33.6562 21.5469 33.6562H21.9375V34.4375H12.5625V12.5625Z" fill="black"/>
<path d="M14.125 21.5469H26.625C26.7286 21.5469 26.828 21.5057 26.9012 21.4325C26.9745 21.3592 27.0156 21.2599 27.0156 21.1562C27.0156 21.0526 26.9745 20.9533 26.9012 20.88C26.828 20.8068 26.7286 20.7656 26.625 20.7656H14.125C14.0214 20.7656 13.922 20.8068 13.8488 20.88C13.7755 20.9533 13.7344 21.0526 13.7344 21.1562C13.7344 21.2599 13.7755 21.3592 13.8488 21.4325C13.922 21.5057 14.0214 21.5469 14.125 21.5469Z" fill="black"/>
<path d="M14.125 23.5H26.625C26.7286 23.5 26.828 23.4588 26.9012 23.3856C26.9745 23.3123 27.0156 23.213 27.0156 23.1094C27.0156 23.0058 26.9745 22.9064 26.9012 22.8332C26.828 22.7599 26.7286 22.7188 26.625 22.7188H14.125C14.0214 22.7188 13.922 22.7599 13.8488 22.8332C13.7755 22.9064 13.7344 23.0058 13.7344 23.1094C13.7344 23.213 13.7755 23.3123 13.8488 23.3856C13.922 23.4588 14.0214 23.5 14.125 23.5Z" fill="black"/>
<path d="M14.125 25.4531H25.8438C25.9474 25.4531 26.0467 25.412 26.12 25.3387C26.1932 25.2655 26.2344 25.1661 26.2344 25.0625C26.2344 24.9589 26.1932 24.8595 26.12 24.7863C26.0467 24.713 25.9474 24.6719 25.8438 24.6719H14.125C14.0214 24.6719 13.922 24.713 13.8488 24.7863C13.7755 24.8595 13.7344 24.9589 13.7344 25.0625C13.7344 25.1661 13.7755 25.2655 13.8488 25.3387C13.922 25.412 14.0214 25.4531 14.125 25.4531Z" fill="black"/>
<path d="M26.2344 27.0156C26.2344 26.912 26.1932 26.8127 26.12 26.7394C26.0467 26.6662 25.9474 26.625 25.8438 26.625H14.125C14.0214 26.625 13.922 26.6662 13.8488 26.7394C13.7755 26.8127 13.7344 26.912 13.7344 27.0156C13.7344 27.1192 13.7755 27.2186 13.8488 27.2918C13.922 27.3651 14.0214 27.4062 14.125 27.4062H25.8438C25.9474 27.4062 26.0467 27.3651 26.12 27.2918C26.1932 27.2186 26.2344 27.1192 26.2344 27.0156Z" fill="black"/>
<path d="M19.5938 28.9688C19.5938 28.8651 19.5526 28.7658 19.4793 28.6925C19.4061 28.6193 19.3067 28.5781 19.2031 28.5781H14.125C14.0214 28.5781 13.922 28.6193 13.8488 28.6925C13.7755 28.7658 13.7344 28.8651 13.7344 28.9688C13.7344 29.0724 13.7755 29.1717 13.8488 29.245C13.922 29.3182 14.0214 29.3594 14.125 29.3594H19.2031C19.3067 29.3594 19.4061 29.3182 19.4793 29.245C19.5526 29.1717 19.5938 29.0724 19.5938 28.9688Z" fill="black"/>
<path d="M14.125 19.5938H20.7656C20.8692 19.5938 20.9686 19.5526 21.0418 19.4793C21.1151 19.4061 21.1562 19.3067 21.1562 19.2031C21.1562 19.0995 21.1151 19.0002 21.0418 18.9269C20.9686 18.8537 20.8692 18.8125 20.7656 18.8125H14.5156V18.5836L15.6875 17.4118L16.1925 17.9168C16.2288 17.9531 16.2719 17.9819 16.3193 18.0015C16.3667 18.0212 16.4175 18.0313 16.4688 18.0313C16.52 18.0313 16.5708 18.0212 16.6182 18.0015C16.6656 17.9819 16.7087 17.9531 16.745 17.9168L18.0312 16.6305L18.5363 17.1356C18.5726 17.1719 18.6156 17.2006 18.663 17.2203C18.7104 17.2399 18.7612 17.25 18.8125 17.25C18.8638 17.25 18.9146 17.2399 18.962 17.2203C19.0094 17.2006 19.0524 17.1719 19.0887 17.1356L20.375 15.8493V16.0781C20.375 16.1817 20.4162 16.2811 20.4894 16.3543C20.5627 16.4276 20.662 16.4688 20.7656 16.4688C20.8692 16.4688 20.9686 16.4276 21.0418 16.3543C21.1151 16.2811 21.1562 16.1817 21.1562 16.0781V14.9062C21.1562 14.8026 21.1151 14.7033 21.0418 14.63C20.9686 14.5568 20.8692 14.5156 20.7656 14.5156H19.5938C19.4901 14.5156 19.3908 14.5568 19.3175 14.63C19.2443 14.7033 19.2031 14.8026 19.2031 14.9062C19.2031 15.0099 19.2443 15.1092 19.3175 15.1825C19.3908 15.2557 19.4901 15.2969 19.5938 15.2969H19.8226L18.8125 16.307L18.3075 15.8019C18.2712 15.7656 18.2281 15.7369 18.1807 15.7172C18.1333 15.6976 18.0825 15.6875 18.0312 15.6875C17.98 15.6875 17.9292 15.6976 17.8818 15.7172C17.8344 15.7369 17.7913 15.7656 17.755 15.8019L16.4688 17.0882L15.9637 16.5832C15.9274 16.5469 15.8844 16.5181 15.837 16.4985C15.7896 16.4788 15.7388 16.4687 15.6875 16.4687C15.6362 16.4687 15.5854 16.4788 15.538 16.4985C15.4906 16.5181 15.4476 16.5469 15.4113 16.5832L14.5156 17.4789V14.5156C14.5156 14.412 14.4745 14.3127 14.4012 14.2394C14.328 14.1662 14.2286 14.125 14.125 14.125C14.0214 14.125 13.922 14.1662 13.8488 14.2394C13.7755 14.3127 13.7344 14.412 13.7344 14.5156V19.2031C13.7344 19.3067 13.7755 19.4061 13.8488 19.4793C13.922 19.5526 14.0214 19.5938 14.125 19.5938Z" fill="black"/>
<path d="M29.7501 26.625C29.7501 26.7286 29.7912 26.828 29.8645 26.9012C29.9377 26.9745 30.0371 27.0156 30.1407 27.0156C30.1407 27.1192 30.1818 27.2186 30.2551 27.2918C30.3284 27.3651 30.4277 27.4062 30.5313 27.4062C30.6349 27.4062 30.7343 27.3651 30.8075 27.2918C30.8808 27.2186 30.9219 27.1192 30.9219 27.0156V26.9099C31.0709 26.824 31.1873 26.6914 31.2531 26.5325C31.319 26.3737 31.3305 26.1976 31.286 26.0315C31.2415 25.8655 31.1433 25.7187 31.0069 25.6142C30.8704 25.5096 30.7032 25.453 30.5313 25.4531H30.9219C31.0255 25.4531 31.1249 25.412 31.1981 25.3387C31.2714 25.2655 31.3126 25.1661 31.3126 25.0625C31.3126 24.9589 31.2714 24.8595 31.1981 24.7863C31.1249 24.713 31.0255 24.6719 30.9219 24.6719C30.9219 24.5683 30.8808 24.4689 30.8075 24.3957C30.7343 24.3224 30.6349 24.2812 30.5313 24.2812C30.4277 24.2812 30.3284 24.3224 30.2551 24.3957C30.1818 24.4689 30.1407 24.5683 30.1407 24.6719V24.7776C29.9917 24.8635 29.8753 24.9961 29.8095 25.155C29.7437 25.3138 29.7321 25.4899 29.7766 25.656C29.8212 25.822 29.9193 25.9688 30.0557 26.0733C30.1922 26.1779 30.3594 26.2345 30.5313 26.2344H30.1407C30.0371 26.2344 29.9377 26.2755 29.8645 26.3488C29.7912 26.422 29.7501 26.5214 29.7501 26.625Z" fill="black"/>
</svg>
