<svg width="116" height="18" viewBox="0 0 116 28" fill="none" xmlns="http://www.w3.org/2000/svg">
<path d="M17.5114 12.9631C17.0256 9.34517 14.1108 7.10795 9.15057 7.10795C4.12642 7.10795 0.815341 9.43466 0.828125 13.2188C0.815341 16.1591 2.66903 18.0639 6.50426 18.831L9.90483 19.5085C11.6179 19.8537 12.3977 20.4801 12.4233 21.4645C12.3977 22.6278 11.1321 23.4588 9.22727 23.4588C7.28409 23.4588 5.9929 22.6278 5.66051 21.0298L0.303977 21.3111C0.815341 25.0696 4.01136 27.3835 9.21449 27.3835C14.3026 27.3835 17.946 24.7884 17.9588 20.9148C17.946 18.0767 16.0923 16.3764 12.2827 15.5966L8.72869 14.8807C6.90057 14.4844 6.22301 13.858 6.2358 12.9119C6.22301 11.7358 7.55256 10.9688 9.24006 10.9688C11.1321 10.9688 12.2571 12.0043 12.5256 13.2699L17.5114 12.9631ZM31.8327 7.36364H28.1381V2.65909H22.6921V7.36364H20.0075V11.4545H22.6921V21.6818C22.6665 25.5298 25.2873 27.4347 29.2376 27.2685C30.6438 27.2173 31.641 26.9361 32.1907 26.7571L31.3342 22.7045C31.0657 22.7557 30.4904 22.8835 29.979 22.8835C28.8924 22.8835 28.1381 22.4744 28.1381 20.9659V11.4545H31.8327V7.36364ZM44.0415 27.3835C49.9989 27.3835 53.7063 23.3054 53.7063 17.2585C53.7063 11.1733 49.9989 7.10795 44.0415 7.10795C38.0842 7.10795 34.3768 11.1733 34.3768 17.2585C34.3768 23.3054 38.0842 27.3835 44.0415 27.3835ZM44.0671 23.1648C41.3185 23.1648 39.9123 20.6463 39.9123 17.2202C39.9123 13.794 41.3185 11.2628 44.0671 11.2628C46.7646 11.2628 48.1708 13.794 48.1708 17.2202C48.1708 20.6463 46.7646 23.1648 44.0671 23.1648ZM66.1197 27.3835C71.3484 27.3835 74.6339 24.3153 74.8896 19.8026H69.7504C69.4308 21.8991 68.0501 23.0753 66.1836 23.0753C63.6396 23.0753 61.9904 20.9403 61.9904 17.1818C61.9904 13.4744 63.6523 11.3523 66.1836 11.3523C68.1779 11.3523 69.4563 12.669 69.7504 14.625H74.8896C74.6594 10.0866 71.2205 7.10795 66.0941 7.10795C60.1367 7.10795 56.4549 11.2372 56.4549 17.2585C56.4549 23.2287 60.0728 27.3835 66.1197 27.3835ZM78.3764 27H83.8224V20.7614L85.2926 19.0866L90.6491 27H97.0284L89.3707 15.8651L96.6577 7.36364H90.4062L84.1165 14.8168H83.8224V0.818181H78.3764V27ZM104.929 27.3707C107.831 27.3707 109.71 26.1051 110.669 24.277H110.822V27H115.987V13.7557C115.987 9.0767 112.024 7.10795 107.652 7.10795C102.947 7.10795 99.8537 9.35795 99.0994 12.9375L104.136 13.3466C104.507 12.0426 105.67 11.0838 107.626 11.0838C109.48 11.0838 110.541 12.017 110.541 13.6278V13.7045C110.541 14.9702 109.199 15.1364 105.786 15.4688C101.899 15.8267 98.4091 17.1307 98.4091 21.5156C98.4091 25.402 101.183 27.3707 104.929 27.3707ZM106.489 23.6122C104.814 23.6122 103.612 22.8324 103.612 21.3366C103.612 19.8026 104.878 19.0483 106.795 18.7798C107.984 18.6136 109.928 18.3324 110.58 17.8977V19.9815C110.58 22.0398 108.879 23.6122 106.489 23.6122Z" fill="url(#paint0_linear)"/>
<defs>
<linearGradient id="paint0_linear" x1="-1" y1="14.88" x2="119" y2="14.88" gradientUnits="userSpaceOnUse">
<stop offset="0.8124" stop-color="#00FFFF"/>
<stop offset="0.8125" stop-color="#FFCC49"/>
</linearGradient>
</defs>
</svg>
