<svg width="514" height="189" viewBox="0 0 514 189" fill="none" xmlns="http://www.w3.org/2000/svg">
<g filter="url(#filter0_d)">
<rect x="15" y="12" width="483.516" height="159" rx="7.12297" fill="#FFCC49"/>
<path d="M41.9128 29.2646H45.196V38.7754H46.142V29.2646H49.4253V28.4147H41.9128V29.2646ZM53.2612 38.9373C55.2747 38.9373 56.6811 37.2931 56.6811 34.9255C56.6811 32.5428 55.2747 30.8986 53.2612 30.8986C51.2478 30.8986 49.8414 32.5428 49.8414 34.9255C49.8414 37.2931 51.2478 38.9373 53.2612 38.9373ZM53.2612 38.1127C51.6474 38.1127 50.7469 36.6658 50.7469 34.9255C50.7469 33.1853 51.6474 31.7182 53.2612 31.7182C54.875 31.7182 55.7755 33.1853 55.7755 34.9255C55.7755 36.6658 54.875 38.1127 53.2612 38.1127ZM61.4554 38.9373C62.8669 38.9373 63.5245 38.0418 63.8432 37.3336H63.9495V38.7754H64.8297V28.4147H63.9242V32.4871H63.8432C63.5346 31.789 62.8922 30.8986 61.4706 30.8986C59.5533 30.8986 58.2582 32.5175 58.2582 34.9104C58.2582 37.3235 59.5482 38.9373 61.4554 38.9373ZM61.5617 38.1127C60.0136 38.1127 59.1637 36.7063 59.1637 34.8952C59.1637 33.1043 60.0035 31.7182 61.5617 31.7182C63.0793 31.7182 63.9394 33.0335 63.9394 34.8952C63.9394 36.7721 63.0692 38.1127 61.5617 38.1127ZM69.5649 38.9525C70.86 38.9525 71.6492 38.2341 71.9729 37.5461H72.0286V38.7754H72.9291V33.4989C72.9291 31.4146 71.3608 30.8986 70.172 30.8986C68.9831 30.8986 67.7589 31.3691 67.2327 32.6389L68.0877 32.9475C68.371 32.2797 69.0742 31.7081 70.1973 31.7081C71.376 31.7081 72.0286 32.3556 72.0286 33.418V33.6001C72.0286 34.1869 71.3001 34.1971 69.9949 34.3589C68.2395 34.5765 67.0101 35.0672 67.0101 36.6051C67.0101 38.1026 68.1535 38.9525 69.5649 38.9525ZM69.6863 38.1278C68.6695 38.1278 67.9106 37.5865 67.9106 36.6456C67.9106 35.7046 68.6796 35.31 69.9949 35.1481C70.6323 35.0723 71.7655 34.9306 72.0286 34.6726V35.7957C72.0286 37.0705 71.123 38.1278 69.6863 38.1278ZM75.6736 41.6893C76.6449 41.6893 77.3582 41.1329 77.773 40.0047L81.0664 31.0201L80.0849 31.0049L77.7781 37.5865H77.7072L75.4004 31.0049H74.424L77.2823 38.8513L76.999 39.6405C76.569 40.8141 75.9619 41.0216 75.0462 40.7332L74.8034 41.5274C74.9855 41.6135 75.3194 41.6893 75.6736 41.6893Z" fill="black"/>
<path d="M442.738 35.2387H443.471C443.414 33.98 442.325 33.0492 440.783 33.0492C439.254 33.0492 438.076 33.9679 438.076 35.3034C438.076 36.3678 438.829 37.0356 440.128 37.4201L441.119 37.7115C442.147 38.011 442.851 38.3954 442.851 39.2413C442.851 40.2369 441.949 40.9047 440.711 40.9047C439.593 40.9047 438.719 40.3664 438.638 39.3829H437.861C437.95 40.6942 439.019 41.5967 440.711 41.5967C442.507 41.5967 443.584 40.5809 443.584 39.2534C443.584 37.8774 442.386 37.327 441.334 37.0315L440.46 36.7806C439.654 36.554 438.808 36.1452 438.808 35.271C438.808 34.3807 439.606 33.7291 440.763 33.7291C441.86 33.7291 442.645 34.3159 442.738 35.2387ZM447.769 41.5846C449.015 41.5846 449.853 40.9087 450.136 40.1276L449.452 39.905C449.214 40.4635 448.651 40.9249 447.769 40.9249C446.498 40.9249 445.693 39.9981 445.66 38.5614H450.29V38.2052C450.29 36.129 449.007 35.1537 447.659 35.1537C446.049 35.1537 444.936 36.5014 444.936 38.3833C444.936 40.2693 446.028 41.5846 447.769 41.5846ZM445.664 37.926C445.741 36.7685 446.522 35.8093 447.659 35.8093C448.772 35.8093 449.554 36.728 449.554 37.926H445.664ZM454.391 41.5846C455.637 41.5846 456.475 40.9087 456.758 40.1276L456.074 39.905C455.836 40.4635 455.273 40.9249 454.391 40.9249C453.12 40.9249 452.315 39.9981 452.282 38.5614H456.912V38.2052C456.912 36.129 455.629 35.1537 454.282 35.1537C452.671 35.1537 451.558 36.5014 451.558 38.3833C451.558 40.2693 452.651 41.5846 454.391 41.5846ZM452.286 37.926C452.363 36.7685 453.144 35.8093 454.282 35.8093C455.395 35.8093 456.176 36.728 456.176 37.926H452.286ZM463.441 41.5967C464.477 41.5967 465.109 41.022 465.368 40.4716H465.412V41.4551H466.133V37.2339C466.133 35.5665 464.878 35.1537 463.927 35.1537C462.976 35.1537 461.996 35.5301 461.576 36.5459L462.26 36.7928C462.486 36.2585 463.049 35.8012 463.947 35.8012C464.89 35.8012 465.412 36.3193 465.412 37.1692V37.3148C465.412 37.7843 464.829 37.7924 463.785 37.9219C462.381 38.0959 461.397 38.4885 461.397 39.7189C461.397 40.9168 462.312 41.5967 463.441 41.5967ZM463.538 40.937C462.725 40.937 462.118 40.504 462.118 39.7512C462.118 38.9985 462.733 38.6828 463.785 38.5533C464.295 38.4926 465.202 38.3792 465.412 38.1728V39.0713C465.412 40.0912 464.688 40.937 463.538 40.937ZM468.769 33.1665H468.049V41.4551H468.769V33.1665ZM471.396 33.1665H470.676V41.4551H471.396V33.1665Z" fill="black"/>
<path d="M91.7285 28.6256V35.8498C91.7234 36.8464 91.2783 37.3725 90.4688 37.3725C89.7049 37.3725 89.2092 36.897 89.194 36.0724H87.0136C87.0035 38.1415 88.4807 39.128 90.3575 39.128C92.457 39.128 93.8887 37.8582 93.8937 35.8498V28.6256H91.7285ZM100.647 35.6778C100.652 36.7199 99.9391 37.2663 99.1651 37.2663C98.3506 37.2663 97.8245 36.6946 97.8195 35.779V31.2158H95.6643V36.1634C95.6694 37.9796 96.7318 39.0875 98.295 39.0875C99.4636 39.0875 100.303 38.4855 100.652 37.5749H100.733V38.9863H102.802V31.2158H100.647V35.6778ZM106.681 34.494C106.686 33.4923 107.283 32.9055 108.154 32.9055C109.019 32.9055 109.54 33.4721 109.535 34.4232V38.9863H111.69V34.0387C111.69 32.2276 110.627 31.1146 109.009 31.1146C107.855 31.1146 107.02 31.6812 106.671 32.5868H106.58V31.2158H104.526V38.9863H106.681V34.494ZM116.93 39.1381C118.852 39.1381 120.147 38.2022 120.451 36.7604L118.457 36.6289C118.24 37.2208 117.683 37.5294 116.965 37.5294C115.887 37.5294 115.204 36.816 115.204 35.6576V35.6525H120.496V35.0606C120.496 32.4198 118.897 31.1146 116.844 31.1146C114.557 31.1146 113.075 32.7385 113.075 35.1365C113.075 37.6002 114.537 39.1381 116.93 39.1381ZM115.204 34.3169C115.25 33.4316 115.923 32.7234 116.879 32.7234C117.815 32.7234 118.462 33.3912 118.467 34.3169H115.204ZM129.687 28.6256H127.628L125.063 30.2496V32.1922L127.436 30.7049H127.496V38.9863H129.687V28.6256ZM135.979 39.128C138.306 39.128 139.97 37.8481 139.965 36.0774C139.97 34.7874 139.151 33.8667 137.628 33.6745V33.5935C138.787 33.3861 139.586 32.5665 139.581 31.403C139.586 29.769 138.154 28.484 136.009 28.484C133.885 28.484 132.286 29.7285 132.256 31.5193H134.355C134.38 30.7302 135.104 30.2192 135.999 30.2192C136.885 30.2192 137.476 30.7554 137.471 31.5345C137.476 32.349 136.783 32.9004 135.787 32.9004H134.82V34.5092H135.787C136.96 34.5092 137.694 35.096 137.689 35.9307C137.694 36.7553 136.986 37.3219 135.984 37.3219C135.018 37.3219 134.294 36.816 134.254 36.0572H132.048C132.084 37.8683 133.702 39.128 135.979 39.128Z" fill="black"/>
<path d="M78.3188 78.1298H80.9009V85.3418H82.1474V78.1298H84.7336V77.0532H78.3188V78.1298ZM87.7709 85.4673C89.5233 85.4673 90.6687 84.1843 90.6687 82.2619C90.6687 80.3274 89.5233 79.0444 87.7709 79.0444C86.0185 79.0444 84.8732 80.3274 84.8732 82.2619C84.8732 84.1843 86.0185 85.4673 87.7709 85.4673ZM87.775 84.4514C86.6296 84.4514 86.0954 83.4518 86.0954 82.2579C86.0954 81.068 86.6296 80.0562 87.775 80.0562C88.9122 80.0562 89.4465 81.068 89.4465 82.2579C89.4465 83.4518 88.9122 84.4514 87.775 84.4514ZM94.9212 79.1254H93.6464V77.636H92.4363V79.1254H91.5257V80.0967H92.4363V83.7675C92.4322 84.8966 93.2943 85.443 94.2494 85.4227C94.6339 85.4187 94.8929 85.3458 95.0345 85.2932L94.816 84.2936C94.7351 84.3098 94.5853 84.3462 94.3911 84.3462C93.9985 84.3462 93.6464 84.2167 93.6464 83.5165V80.0967H94.9212V79.1254ZM98.0689 85.4794C99.0969 85.4794 99.6756 84.9573 99.9063 84.4919H99.9549V85.3418H101.137V81.2137C101.137 79.4046 99.712 79.0444 98.7245 79.0444C97.5994 79.0444 96.5634 79.4977 96.1586 80.6309L97.2959 80.8899C97.474 80.4488 97.9272 80.0238 98.7407 80.0238C99.5218 80.0238 99.9225 80.4326 99.9225 81.1368V81.1651C99.9225 81.6063 99.4692 81.5982 98.3522 81.7277C97.1745 81.8653 95.9684 82.1729 95.9684 83.5853C95.9684 84.8076 96.8871 85.4794 98.0689 85.4794ZM98.332 84.5081C97.648 84.5081 97.1542 84.2005 97.1542 83.6015C97.1542 82.954 97.7289 82.7233 98.4291 82.6302C98.8217 82.5776 99.7525 82.4724 99.9265 82.2983V83.0997C99.9265 83.8363 99.3397 84.5081 98.332 84.5081ZM103.958 77.0532H102.748V85.3418H103.958V77.0532ZM113.22 79.2306H114.426C114.39 77.9031 113.216 76.9399 111.533 76.9399C109.869 76.9399 108.595 77.891 108.595 79.3196C108.595 80.4731 109.42 81.149 110.752 81.5092L111.731 81.7763C112.617 82.011 113.301 82.3024 113.301 83.039C113.301 83.8484 112.528 84.3826 111.464 84.3826C110.501 84.3826 109.699 83.9536 109.627 83.0511H108.372C108.453 84.5526 109.614 85.4794 111.472 85.4794C113.419 85.4794 114.54 84.4555 114.54 83.0511C114.54 81.5577 113.208 80.979 112.156 80.72L111.347 80.5095C110.699 80.3436 109.837 80.04 109.841 79.2468C109.841 78.5426 110.485 78.0205 111.504 78.0205C112.455 78.0205 113.131 78.4657 113.22 79.2306ZM117.746 85.4794C118.774 85.4794 119.353 84.9573 119.584 84.4919H119.632V85.3418H120.814V81.2137C120.814 79.4046 119.389 79.0444 118.402 79.0444C117.277 79.0444 116.241 79.4977 115.836 80.6309L116.973 80.8899C117.151 80.4488 117.604 80.0238 118.418 80.0238C119.199 80.0238 119.6 80.4326 119.6 81.1368V81.1651C119.6 81.6063 119.146 81.5982 118.029 81.7277C116.852 81.8653 115.646 82.1729 115.646 83.5853C115.646 84.8076 116.564 85.4794 117.746 85.4794ZM118.009 84.5081C117.325 84.5081 116.831 84.2005 116.831 83.6015C116.831 82.954 117.406 82.7233 118.106 82.6302C118.499 82.5776 119.43 82.4724 119.604 82.2983V83.0997C119.604 83.8363 119.017 84.5081 118.009 84.5081ZM123.636 77.0532H122.426V85.3418H123.636V77.0532ZM127.943 85.4673C129.299 85.4673 130.258 84.7995 130.533 83.7877L129.388 83.5813C129.169 84.1681 128.643 84.4676 127.955 84.4676C126.919 84.4676 126.223 83.7958 126.19 82.5978H130.61V82.1688C130.61 79.9227 129.266 79.0444 127.858 79.0444C126.126 79.0444 124.984 80.3638 124.984 82.2741C124.984 84.2045 126.11 85.4673 127.943 85.4673ZM126.195 81.6913C126.243 80.809 126.883 80.0441 127.866 80.0441C128.805 80.0441 129.42 80.7402 129.424 81.6913H126.195ZM136.611 80.6431C136.36 79.6758 135.603 79.0444 134.259 79.0444C132.855 79.0444 131.86 79.7851 131.86 80.8859C131.86 81.7682 132.394 82.355 133.559 82.614L134.612 82.8447C135.211 82.9783 135.49 83.2454 135.49 83.6339C135.49 84.1155 134.976 84.4919 134.183 84.4919C133.458 84.4919 132.993 84.1803 132.847 83.5691L131.677 83.7472C131.88 84.848 132.794 85.4673 134.191 85.4673C135.692 85.4673 136.732 84.67 136.732 83.5449C136.732 82.6666 136.174 82.1243 135.032 81.8613L134.045 81.6346C133.361 81.4727 133.066 81.242 133.07 80.8211C133.066 80.3436 133.584 80.0036 134.272 80.0036C135.024 80.0036 135.372 80.4205 135.514 80.8373L136.611 80.6431Z" fill="black"/>
<path d="M66.1173 109.011H64.3856V101.065H59.8068V109.011H55.6742L50.2242 101.065H46.1872V109.011H44.4449V111.136H46.1872V113.601H44.4449V115.726H46.1872V122.822H50.7872V115.726H55.5042L60.4124 122.822H64.3856V115.726H66.1173V113.601H64.3856V111.136H66.1173V109.011ZM52.3383 111.136L54.0381 113.601H50.7872V111.136H52.3383ZM59.8068 111.136V113.601H58.8294L57.1402 111.136H59.8068ZM76.4888 123.12C81.3969 123.12 84.924 120.496 84.9346 116.969C84.924 114.249 82.8311 112.029 80.2177 111.593V111.444C82.4912 110.977 84.1166 109.011 84.1272 106.621C84.1166 103.253 80.887 100.767 76.4888 100.767C72.0799 100.767 68.8503 103.253 68.8609 106.621C68.8503 109.001 70.4545 110.977 72.7704 111.444V111.593C70.1145 112.029 68.0429 114.249 68.0535 116.969C68.0429 120.496 71.5806 123.12 76.4888 123.12ZM76.4888 119.741C74.3003 119.741 72.8342 118.445 72.8342 116.607C72.8342 114.727 74.3746 113.367 76.4888 113.367C78.5923 113.367 80.1433 114.727 80.1433 116.607C80.1433 118.456 78.6666 119.741 76.4888 119.741ZM76.4888 110.021C74.6508 110.021 73.3441 108.82 73.3441 107.099C73.3441 105.399 74.6296 104.231 76.4888 104.231C78.3373 104.231 79.6334 105.41 79.6334 107.099C79.6334 108.82 78.316 110.021 76.4888 110.021ZM89.0115 122.822H93.7603L102.791 104.879V101.065H87.5242V104.826H98.0311V104.974L89.0115 122.822ZM107.165 119.848H103.425L103.372 121.037C103.245 123.927 102.416 126.891 102.108 128.134H105.04C105.55 126.849 106.761 123.832 107.048 121.016L107.165 119.848ZM119.032 123.12C123.876 123.12 127.169 119.964 127.159 115.566C127.169 111.402 124.258 108.406 120.338 108.406C118.426 108.406 116.779 109.203 116.014 110.276H115.887L116.45 104.826H125.958V101.065H112.657L111.627 112.538L115.717 113.272C116.386 112.368 117.682 111.805 118.968 111.805C121.156 111.816 122.729 113.399 122.729 115.683C122.729 117.946 121.188 119.508 119.032 119.508C117.204 119.508 115.728 118.36 115.621 116.671H111.159C111.244 120.432 114.527 123.12 119.032 123.12ZM138.898 123.3C144.369 123.3 147.673 119.136 147.684 111.965C147.694 104.847 144.348 100.767 138.898 100.767C133.437 100.767 130.123 104.836 130.112 111.965C130.091 119.115 133.416 123.29 138.898 123.3ZM138.898 119.486C136.401 119.486 134.787 116.979 134.797 111.965C134.808 107.025 136.412 104.539 138.898 104.539C141.373 104.539 142.988 107.025 142.988 111.965C142.999 116.979 141.384 119.486 138.898 119.486ZM159.495 123.3C164.966 123.3 168.27 119.136 168.281 111.965C168.291 104.847 164.945 100.767 159.495 100.767C154.034 100.767 150.72 104.836 150.709 111.965C150.688 119.115 154.013 123.29 159.495 123.3ZM159.495 119.486C156.998 119.486 155.383 116.979 155.394 111.965C155.405 107.025 157.009 104.539 159.495 104.539C161.97 104.539 163.585 107.025 163.585 111.965C163.596 116.979 161.981 119.486 159.495 119.486Z" fill="black"/>
<path d="M246.162 101.065H241.839L236.452 104.475V108.555L241.435 105.431H241.562V122.822H246.162V101.065ZM259.864 123.3C265.336 123.3 268.64 119.136 268.65 111.965C268.661 104.847 265.314 100.767 259.864 100.767C254.404 100.767 251.089 104.836 251.079 111.965C251.057 119.115 254.383 123.29 259.864 123.3ZM259.864 119.486C257.368 119.486 255.753 116.979 255.764 111.965C255.774 107.025 257.378 104.539 259.864 104.539C262.34 104.539 263.955 107.025 263.955 111.965C263.965 116.979 262.35 119.486 259.864 119.486ZM271.93 122.822H287.441V119.061H278.305V118.913L281.481 115.8C285.954 111.72 287.154 109.681 287.154 107.205C287.154 103.434 284.073 100.767 279.409 100.767C274.841 100.767 271.707 103.498 271.718 107.768H276.084C276.074 105.686 277.391 104.411 279.378 104.411C281.29 104.411 282.713 105.601 282.713 107.513C282.713 109.245 281.651 110.435 279.675 112.337L271.93 119.508V122.822Z" fill="black"/>
<path d="M400.755 123.635C405.6 123.635 408.893 120.48 408.882 116.082C408.893 111.917 405.982 108.921 402.062 108.921C400.15 108.921 398.503 109.718 397.738 110.791H397.611L398.174 105.341H407.682V101.58H394.381L393.35 113.054L397.441 113.787C398.11 112.884 399.406 112.321 400.691 112.321C402.88 112.332 404.452 113.915 404.452 116.199C404.452 118.462 402.912 120.023 400.755 120.023C398.928 120.023 397.451 118.876 397.345 117.187H392.883C392.968 120.948 396.251 123.635 400.755 123.635ZM420.037 123.635C424.882 123.635 428.175 120.48 428.164 116.082C428.175 111.917 425.264 108.921 421.344 108.921C419.432 108.921 417.785 109.718 417.02 110.791H416.893L417.456 105.341H426.964V101.58H413.663L412.633 113.054L416.723 113.787C417.392 112.884 418.688 112.321 419.974 112.321C422.162 112.332 423.734 113.915 423.734 116.199C423.734 118.462 422.194 120.023 420.037 120.023C418.21 120.023 416.733 118.876 416.627 117.187H412.165C412.25 120.948 415.533 123.635 420.037 123.635Z" fill="black"/>
<path d="M245.36 79.2306H246.566C246.53 77.9031 245.356 76.9399 243.672 76.9399C242.009 76.9399 240.734 77.891 240.734 79.3196C240.734 80.4731 241.56 81.149 242.891 81.5092L243.871 81.7763C244.757 82.011 245.441 82.3024 245.441 83.039C245.441 83.8484 244.668 84.3826 243.604 84.3826C242.64 84.3826 241.839 83.9536 241.766 83.0511H240.512C240.593 84.5526 241.754 85.4794 243.612 85.4794C245.558 85.4794 246.679 84.4555 246.679 83.0511C246.679 81.5577 245.348 80.979 244.296 80.72L243.486 80.5095C242.839 80.3436 241.977 80.04 241.981 79.2468C241.981 78.5426 242.624 78.0205 243.644 78.0205C244.595 78.0205 245.271 78.4657 245.36 79.2306ZM250.979 79.1254H249.704V77.636H248.494V79.1254H247.583V80.0967H248.494V83.7675C248.49 84.8966 249.352 85.443 250.307 85.4227C250.691 85.4187 250.95 85.3458 251.092 85.2932L250.873 84.2936C250.792 84.3098 250.643 84.3462 250.448 84.3462C250.056 84.3462 249.704 84.2167 249.704 83.5165V80.0967H250.979V79.1254ZM254.869 85.4673C256.621 85.4673 257.767 84.1843 257.767 82.2619C257.767 80.3274 256.621 79.0444 254.869 79.0444C253.116 79.0444 251.971 80.3274 251.971 82.2619C251.971 84.1843 253.116 85.4673 254.869 85.4673ZM254.873 84.4514C253.728 84.4514 253.193 83.4518 253.193 82.2579C253.193 81.068 253.728 80.0562 254.873 80.0562C256.01 80.0562 256.544 81.068 256.544 82.2579C256.544 83.4518 256.01 84.4514 254.873 84.4514ZM261.736 85.4673C263.205 85.4673 264.156 84.585 264.29 83.3749H263.112C262.958 84.0467 262.436 84.4433 261.744 84.4433C260.72 84.4433 260.06 83.5894 260.06 82.2336C260.06 80.9021 260.732 80.0643 261.744 80.0643C262.513 80.0643 262.982 80.55 263.112 81.1328H264.29C264.16 79.8782 263.136 79.0444 261.724 79.0444C259.971 79.0444 258.838 80.3638 258.838 82.2619C258.838 84.1357 259.931 85.4673 261.736 85.4673ZM265.584 85.3418H266.794V83.1361L267.397 82.5331L269.509 85.3418H270.995L268.307 81.7925L270.825 79.1254H269.376L266.899 81.756H266.794V77.0532H265.584V85.3418ZM276.291 77.0532H275.041V85.3418H276.291V77.0532ZM279.226 81.6508C279.226 80.6593 279.833 80.0927 280.674 80.0927C281.496 80.0927 281.994 80.6309 281.994 81.5334V85.3418H283.204V81.3877C283.204 79.8498 282.358 79.0444 281.087 79.0444C280.152 79.0444 279.541 79.4775 279.254 80.1372H279.177V79.1254H278.016V85.3418H279.226V81.6508Z" fill="black"/>
<path d="M386.379 79.2306H387.586C387.549 77.9031 386.375 76.9399 384.692 76.9399C383.028 76.9399 381.754 77.891 381.754 79.3196C381.754 80.4731 382.579 81.149 383.911 81.5092L384.89 81.7763C385.776 82.011 386.46 82.3024 386.46 83.039C386.46 83.8484 385.687 84.3826 384.623 84.3826C383.66 84.3826 382.858 83.9536 382.786 83.0511H381.531C381.612 84.5526 382.773 85.4794 384.631 85.4794C386.578 85.4794 387.699 84.4555 387.699 83.0511C387.699 81.5577 386.367 80.979 385.315 80.72L384.506 80.5095C383.858 80.3436 382.996 80.04 383 79.2468C383 78.5426 383.644 78.0205 384.663 78.0205C385.615 78.0205 386.29 78.4657 386.379 79.2306ZM391.998 79.1254H390.723V77.636H389.513V79.1254H388.602V80.0967H389.513V83.7675C389.509 84.8966 390.371 85.443 391.326 85.4227C391.711 85.4187 391.97 85.3458 392.111 85.2932L391.893 84.2936C391.812 84.3098 391.662 84.3462 391.468 84.3462C391.075 84.3462 390.723 84.2167 390.723 83.5165V80.0967H391.998V79.1254ZM395.888 85.4673C397.641 85.4673 398.786 84.1843 398.786 82.2619C398.786 80.3274 397.641 79.0444 395.888 79.0444C394.136 79.0444 392.99 80.3274 392.99 82.2619C392.99 84.1843 394.136 85.4673 395.888 85.4673ZM395.892 84.4514C394.747 84.4514 394.213 83.4518 394.213 82.2579C394.213 81.068 394.747 80.0562 395.892 80.0562C397.03 80.0562 397.564 81.068 397.564 82.2579C397.564 83.4518 397.03 84.4514 395.892 84.4514ZM402.755 85.4673C404.224 85.4673 405.175 84.585 405.309 83.3749H404.131C403.977 84.0467 403.455 84.4433 402.763 84.4433C401.739 84.4433 401.08 83.5894 401.08 82.2336C401.08 80.9021 401.752 80.0643 402.763 80.0643C403.532 80.0643 404.002 80.55 404.131 81.1328H405.309C405.179 79.8782 404.156 79.0444 402.743 79.0444C400.991 79.0444 399.857 80.3638 399.857 82.2619C399.857 84.1357 400.95 85.4673 402.755 85.4673ZM406.603 85.3418H407.813V83.1361L408.416 82.5331L410.529 85.3418H412.014L409.327 81.7925L411.844 79.1254H410.395L407.918 81.756H407.813V77.0532H406.603V85.3418ZM423.26 81.1975C423.26 78.5466 421.674 76.9399 419.529 76.9399C417.376 76.9399 415.793 78.5466 415.793 81.1975C415.793 83.8444 417.376 85.4551 419.529 85.4551C421.674 85.4551 423.26 83.8484 423.26 81.1975ZM422.022 81.1975C422.022 83.217 420.953 84.3138 419.529 84.3138C418.1 84.3138 417.036 83.217 417.036 81.1975C417.036 79.178 418.1 78.0812 419.529 78.0812C420.953 78.0812 422.022 79.178 422.022 81.1975ZM428.66 82.7638C428.664 83.8201 427.879 84.3219 427.199 84.3219C426.45 84.3219 425.932 83.7796 425.932 82.9337V79.1254H424.722V83.0794C424.722 84.6214 425.568 85.4227 426.762 85.4227C427.697 85.4227 428.332 84.929 428.62 84.2653H428.684V85.3418H429.874V79.1254H428.66V82.7638ZM434.402 79.1254H433.127V77.636H431.917V79.1254H431.006V80.0967H431.917V83.7675C431.913 84.8966 432.775 85.443 433.73 85.4227C434.115 85.4187 434.374 85.3458 434.515 85.2932L434.297 84.2936C434.216 84.3098 434.066 84.3462 433.872 84.3462C433.479 84.3462 433.127 84.2167 433.127 83.5165V80.0967H434.402V79.1254Z" fill="black"/>
<line x1="182.843" y1="80.1426" x2="182.843" y2="129.83" stroke="#FAFAFA" stroke-width="1.42459"/>
<line x1="332.095" y1="80.1426" x2="332.095" y2="129.83" stroke="#FAFAFA" stroke-width="1.42459"/>
</g>
<defs>
<filter id="filter0_d" x="0" y="0" width="513.516" height="189" filterUnits="userSpaceOnUse" color-interpolation-filters="sRGB">
<feFlood flood-opacity="0" result="BackgroundImageFix"/>
<feColorMatrix in="SourceAlpha" type="matrix" values="0 0 0 0 0 0 0 0 0 0 0 0 0 0 0 0 0 0 127 0"/>
<feOffset dy="3"/>
<feGaussianBlur stdDeviation="7.5"/>
<feColorMatrix type="matrix" values="0 0 0 0 0 0 0 0 0 0 0 0 0 0 0 0 0 0 0.1 0"/>
<feBlend mode="normal" in2="BackgroundImageFix" result="effect1_dropShadow"/>
<feBlend mode="normal" in="SourceGraphic" in2="effect1_dropShadow" result="shape"/>
</filter>
</defs>
</svg>
