<svg width="40" height="40" viewBox="0 0 40 40" fill="none" xmlns="http://www.w3.org/2000/svg">
<circle cx="20" cy="20" r="20" fill="#FFCC49"/>
<path d="M16.283 28.263C23.83 28.263 27.959 22.004 27.959 16.586C27.959 16.41 27.959 16.234 27.951 16.058C28.7551 15.4753 29.4489 14.7541 30 13.928C29.2496 14.2595 28.4544 14.4782 27.64 14.577C28.498 14.0633 29.1405 13.2556 29.448 12.304C28.6415 12.7825 27.7586 13.1184 26.838 13.297C26.4548 12.8876 25.9916 12.5612 25.4771 12.3381C24.9626 12.115 24.4078 11.9999 23.847 12C22.7583 12.0008 21.7143 12.4336 20.9445 13.2035C20.1746 13.9733 19.7418 15.0173 19.741 16.106C19.741 16.426 19.781 16.738 19.845 17.042C18.2129 16.96 16.6163 16.5357 15.1588 15.7967C13.7013 15.0576 12.4155 14.0203 11.385 12.752C10.8613 13.6566 10.7014 14.7265 10.9378 15.7446C11.1743 16.7628 11.7893 17.6528 12.658 18.234C12.0071 18.2115 11.3706 18.0361 10.8 17.722V17.778C10.8009 18.7253 11.1287 19.6433 11.7282 20.3768C12.3276 21.1103 13.1619 21.6144 14.09 21.804C13.7383 21.901 13.3749 21.9495 13.01 21.948C12.745 21.948 12.489 21.924 12.24 21.876C12.5016 22.6918 13.012 23.4053 13.6996 23.9164C14.3871 24.4275 15.2174 24.7106 16.074 24.726C14.6205 25.8686 12.8248 26.4885 10.976 26.486C10.648 26.486 10.32 26.47 10 26.43C11.8767 27.6276 14.0567 28.2636 16.283 28.263Z" fill="black"/>
</svg>
