<svg width="560" height="450" viewBox="0 0 560 750" fill="none" xmlns="http://www.w3.org/2000/svg">
<path d="M542.651 -140.127C639.152 -130.029 747.902 -158.557 823.413 -97.6273C898.388 -37.1308 886.515 76.9639 922.468 166.342C963.29 267.824 1082.03 356.835 1048.05 460.807C1014.15 564.521 869.116 571.382 773.116 623.249C691.368 667.416 620.44 729.609 528.302 741.616C425.342 755.033 308.275 760.296 228.144 694.267C148.716 628.817 163.352 506.831 126.676 410.668C86.1663 304.454 -16.6043 214.202 2.297 102.107C21.7836 -13.4588 116.035 -112.517 222.978 -160.458C322.853 -205.231 433.794 -151.518 542.651 -140.127Z" fill="#C4FAE3"/>
</svg>
